<svg aria-hidden="true" style="position: absolute; width: 0; height: 0; overflow: hidden;" version="1.1" xmlns="http://www.w3.org/2000/svg" xmlns:xlink="http://www.w3.org/1999/xlink">
<defs>
<symbol id="Social-links" viewBox="0 0 300 64">
<path fill="#fff" style="fill: var(--color1, #fff)" opacity="0.1" d="M299.636 32c0 8.837-3.581 16.837-9.373 22.628-5.791 5.791-13.791 9.373-22.627 9.373s-16.836-3.582-22.627-9.373c-5.792-5.791-9.373-13.791-9.373-22.628s3.581-16.837 9.373-22.627c5.791-5.791 13.791-9.373 22.627-9.373s16.836 3.582 22.627 9.373c5.792 5.791 9.373 13.791 9.373 22.627z"></path>
<path fill="#fff" style="fill: var(--color1, #fff)" d="M282.175 46.545v-0.001h0.007v-10.669c0-5.219-1.123-9.24-7.226-9.24-2.932 0-4.902 1.61-5.705 3.136h-0.084v-2.648h-5.786v19.422h6.025v-9.617c0-2.532 0.48-4.98 3.616-4.98 3.089 0 3.135 2.89 3.135 5.143v9.456h6.019z"></path>
<path fill="#fff" style="fill: var(--color1, #fff)" d="M253.571 27.124h6.032v19.422h-6.032v-19.422z"></path>
<path fill="#fff" style="fill: var(--color1, #fff)" d="M256.585 17.455c-1.929 0-3.494 1.565-3.494 3.493s1.565 3.526 3.494 3.526c1.927 0 3.492-1.598 3.492-3.526-0.001-1.929-1.565-3.493-3.492-3.493v0z"></path>
<path fill="#fff" style="fill: var(--color1, #fff)" opacity="0.1" d="M221.091 32c0 8.837-3.581 16.837-9.373 22.628-5.791 5.791-13.791 9.373-22.627 9.373s-16.836-3.582-22.627-9.373c-5.792-5.791-9.373-13.791-9.373-22.628s3.581-16.837 9.373-22.627c5.791-5.791 13.791-9.373 22.627-9.373s16.836 3.582 22.627 9.373c5.792 5.791 9.373 13.791 9.373 22.627z"></path>
<path fill="#fff" style="fill: var(--color1, #fff)" d="M193.936 22.285h2.656v-4.625c-0.458-0.063-2.035-0.205-3.869-0.205-3.83 0-6.452 2.408-6.452 6.835v4.074h-4.225v5.171h4.225v13.011h5.18v-13.010h4.055l0.643-5.171h-4.698v-3.562c0-1.495 0.403-2.518 2.486-2.518z"></path>
<path fill="#2196f3" style="fill: var(--color2, #2196f3)" d="M142.545 32c0 8.837-3.582 16.837-9.373 22.628s-13.791 9.373-22.627 9.373-16.837-3.582-22.627-9.373c-5.791-5.791-9.373-13.791-9.373-22.628s3.582-16.837 9.373-22.627c5.791-5.791 13.791-9.373 22.627-9.373s16.837 3.582 22.627 9.373c5.791 5.791 9.373 13.791 9.373 22.627z"></path>
<path fill="#fff" style="fill: var(--color1, #fff)" d="M125.091 22.98c-1.082 0.474-2.235 0.789-3.436 0.942 1.236-0.738 2.18-1.898 2.624-3.296-1.153 0.687-2.425 1.173-3.782 1.444-1.095-1.165-2.655-1.887-4.356-1.887-3.302 0-5.96 2.68-5.96 5.965 0 0.473 0.040 0.927 0.138 1.36-4.958-0.242-9.345-2.618-12.293-6.238-0.515 0.893-0.816 1.915-0.816 3.015 0 2.065 1.064 3.896 2.649 4.956-0.958-0.018-1.898-0.296-2.695-0.735 0 0.018 0 0.042 0 0.065 0 2.898 2.067 5.305 4.778 5.86-0.486 0.133-1.015 0.196-1.564 0.196-0.382 0-0.767-0.022-1.129-0.102 0.773 2.362 2.966 4.098 5.573 4.155-2.029 1.587-4.605 2.544-7.394 2.544-0.489 0-0.958-0.022-1.427-0.082 2.642 1.704 5.773 2.676 9.149 2.676 10.975 0 16.975-9.091 16.975-16.971 0-0.264-0.009-0.518-0.022-0.771 1.184-0.84 2.178-1.889 2.989-3.096z"></path>
<path fill="#fff" style="fill: var(--color1, #fff)" opacity="0.1" d="M64 32c0 8.837-3.582 16.837-9.373 22.628s-13.791 9.373-22.628 9.373-16.837-3.582-22.627-9.373c-5.791-5.791-9.373-13.791-9.373-22.628s3.582-16.837 9.373-22.627 13.791-9.373 22.627-9.373c8.836 0 16.837 3.582 22.628 9.373s9.373 13.791 9.373 22.627z"></path>
<path fill="#fff" style="fill: var(--color1, #fff)" d="M46.517 26.007c-0.068-1.546-0.318-2.608-0.676-3.529-0.369-0.977-0.938-1.852-1.682-2.58-0.727-0.739-1.608-1.313-2.574-1.677-0.926-0.358-1.983-0.608-3.529-0.676-1.557-0.074-2.052-0.091-6.001-0.091s-4.444 0.017-5.995 0.085c-1.546 0.068-2.608 0.318-3.529 0.676-0.978 0.369-1.853 0.938-2.58 1.682-0.739 0.727-1.313 1.608-1.677 2.574-0.358 0.926-0.608 1.983-0.676 3.529-0.074 1.557-0.091 2.052-0.091 6.001s0.017 4.444 0.085 5.995c0.068 1.546 0.318 2.608 0.676 3.529 0.369 0.977 0.943 1.852 1.682 2.58 0.727 0.739 1.608 1.313 2.574 1.676 0.926 0.358 1.983 0.608 3.529 0.676 1.551 0.068 2.046 0.085 5.996 0.085s4.444-0.017 5.995-0.085c1.546-0.068 2.608-0.318 3.529-0.676 1.955-0.756 3.501-2.302 4.257-4.256 0.358-0.926 0.608-1.984 0.676-3.529 0.068-1.552 0.085-2.046 0.085-5.995s-0.006-4.444-0.074-5.995zM43.897 37.885c-0.063 1.421-0.301 2.188-0.5 2.699-0.489 1.267-1.495 2.273-2.762 2.762-0.511 0.199-1.284 0.438-2.699 0.5-1.534 0.068-1.995 0.085-5.876 0.085s-4.348-0.017-5.876-0.085c-1.421-0.062-2.188-0.301-2.699-0.5-0.631-0.233-1.205-0.602-1.671-1.086-0.483-0.472-0.852-1.040-1.085-1.671-0.199-0.511-0.438-1.284-0.5-2.699-0.068-1.534-0.085-1.995-0.085-5.876s0.017-4.347 0.085-5.876c0.062-1.421 0.301-2.188 0.5-2.699 0.233-0.631 0.602-1.205 1.091-1.671 0.471-0.483 1.040-0.852 1.671-1.085 0.511-0.199 1.284-0.438 2.699-0.5 1.534-0.068 1.995-0.085 5.876-0.085 3.887 0 4.347 0.017 5.876 0.085 1.421 0.063 2.188 0.301 2.7 0.5 0.631 0.233 1.205 0.602 1.671 1.085 0.483 0.472 0.852 1.040 1.086 1.671 0.199 0.511 0.438 1.284 0.5 2.699 0.068 1.534 0.085 1.995 0.085 5.876s-0.017 4.336-0.085 5.871z"></path>
<path fill="#fff" style="fill: var(--color1, #fff)" d="M32.054 24.53c-4.126 0-7.473 3.347-7.473 7.473s3.347 7.473 7.473 7.473c4.126 0 7.473-3.347 7.473-7.473s-3.347-7.473-7.473-7.473zM32.054 36.85c-2.677 0-4.848-2.171-4.848-4.848s2.171-4.848 4.848-4.848c2.677 0 4.848 2.171 4.848 4.848s-2.171 4.848-4.848 4.848z"></path>
<path fill="#fff" style="fill: var(--color1, #fff)" d="M41.567 24.234c0 0.963-0.781 1.745-1.745 1.745s-1.745-0.781-1.745-1.745c0-0.964 0.781-1.745 1.745-1.745s1.745 0.781 1.745 1.745z"></path>
</symbol>
<symbol id="Social-team" viewBox="0 0 300 64">
<path fill="#fff" style="fill: var(--color1, #fff)" d="M282.175 46.545v-0.001h0.007v-10.669c0-5.219-1.123-9.24-7.226-9.24-2.932 0-4.902 1.61-5.705 3.136h-0.084v-2.648h-5.786v19.422h6.025v-9.617c0-2.532 0.48-4.98 3.616-4.98 3.089 0 3.135 2.89 3.135 5.143v9.456h6.019z"></path>
<path fill="#fff" style="fill: var(--color1, #fff)" d="M253.571 27.124h6.032v19.422h-6.032v-19.422z"></path>
<path fill="#fff" style="fill: var(--color1, #fff)" d="M256.585 17.455c-1.929 0-3.494 1.565-3.494 3.493s1.565 3.526 3.494 3.526c1.927 0 3.492-1.598 3.492-3.526-0.001-1.929-1.565-3.493-3.492-3.493v0z"></path>
<path fill="#fff" style="fill: var(--color1, #fff)" d="M193.936 22.285h2.656v-4.625c-0.458-0.063-2.035-0.205-3.869-0.205-3.83 0-6.452 2.408-6.452 6.835v4.074h-4.225v5.171h4.225v13.011h5.18v-13.010h4.055l0.643-5.171h-4.698v-3.562c0-1.495 0.403-2.518 2.486-2.518z"></path>
<path fill="#fff" style="fill: var(--color1, #fff)" d="M125.091 22.98c-1.082 0.474-2.235 0.789-3.436 0.942 1.236-0.738 2.18-1.898 2.624-3.296-1.153 0.687-2.425 1.173-3.782 1.444-1.095-1.165-2.655-1.887-4.356-1.887-3.302 0-5.96 2.68-5.96 5.965 0 0.473 0.040 0.927 0.138 1.36-4.958-0.242-9.345-2.618-12.293-6.238-0.515 0.893-0.816 1.915-0.816 3.015 0 2.065 1.064 3.896 2.649 4.956-0.958-0.018-1.898-0.296-2.695-0.735 0 0.018 0 0.042 0 0.065 0 2.898 2.067 5.305 4.778 5.86-0.486 0.133-1.015 0.196-1.564 0.196-0.382 0-0.767-0.022-1.129-0.102 0.773 2.362 2.966 4.098 5.573 4.155-2.029 1.587-4.605 2.544-7.394 2.544-0.489 0-0.958-0.022-1.427-0.082 2.642 1.704 5.773 2.676 9.149 2.676 10.975 0 16.975-9.091 16.975-16.971 0-0.264-0.009-0.518-0.022-0.771 1.184-0.84 2.178-1.889 2.989-3.096z"></path>
<path fill="#fff" style="fill: var(--color1, #fff)" d="M46.517 26.007c-0.068-1.546-0.318-2.608-0.676-3.529-0.369-0.977-0.938-1.852-1.682-2.58-0.727-0.739-1.608-1.313-2.574-1.677-0.926-0.358-1.983-0.608-3.529-0.676-1.557-0.074-2.052-0.091-6.001-0.091s-4.444 0.017-5.995 0.085c-1.546 0.068-2.608 0.318-3.529 0.676-0.978 0.369-1.853 0.938-2.58 1.682-0.739 0.727-1.313 1.608-1.677 2.574-0.358 0.926-0.608 1.983-0.676 3.529-0.074 1.557-0.091 2.052-0.091 6.001s0.017 4.444 0.085 5.995c0.068 1.546 0.318 2.608 0.676 3.529 0.369 0.977 0.943 1.852 1.682 2.58 0.727 0.739 1.608 1.313 2.574 1.676 0.926 0.358 1.983 0.608 3.529 0.676 1.551 0.068 2.046 0.085 5.996 0.085s4.444-0.017 5.995-0.085c1.546-0.068 2.608-0.318 3.529-0.676 1.955-0.756 3.501-2.302 4.257-4.256 0.358-0.926 0.608-1.984 0.676-3.529 0.068-1.552 0.085-2.046 0.085-5.995s-0.006-4.444-0.074-5.995zM43.897 37.885c-0.063 1.421-0.301 2.188-0.5 2.699-0.489 1.267-1.495 2.273-2.762 2.762-0.511 0.199-1.284 0.438-2.699 0.5-1.534 0.068-1.995 0.085-5.876 0.085s-4.348-0.017-5.876-0.085c-1.421-0.062-2.188-0.301-2.699-0.5-0.631-0.233-1.205-0.602-1.671-1.086-0.483-0.472-0.852-1.040-1.085-1.671-0.199-0.511-0.438-1.284-0.5-2.699-0.068-1.534-0.085-1.995-0.085-5.876s0.017-4.347 0.085-5.876c0.062-1.421 0.301-2.188 0.5-2.699 0.233-0.631 0.602-1.205 1.091-1.671 0.471-0.483 1.040-0.852 1.671-1.085 0.511-0.199 1.284-0.438 2.699-0.5 1.534-0.068 1.995-0.085 5.876-0.085 3.887 0 4.347 0.017 5.876 0.085 1.421 0.063 2.188 0.301 2.7 0.5 0.631 0.233 1.205 0.602 1.671 1.085 0.483 0.472 0.852 1.040 1.086 1.671 0.199 0.511 0.438 1.284 0.5 2.699 0.068 1.534 0.085 1.995 0.085 5.876s-0.017 4.336-0.085 5.871z"></path>
<path fill="#fff" style="fill: var(--color1, #fff)" d="M32.054 24.53c-4.126 0-7.473 3.347-7.473 7.473s3.347 7.473 7.473 7.473c4.126 0 7.473-3.347 7.473-7.473s-3.347-7.473-7.473-7.473zM32.054 36.85c-2.677 0-4.848-2.171-4.848-4.848s2.171-4.848 4.848-4.848c2.677 0 4.848 2.171 4.848 4.848s-2.171 4.848-4.848 4.848z"></path>
<path fill="#fff" style="fill: var(--color1, #fff)" d="M41.567 24.234c0 0.963-0.781 1.745-1.745 1.745s-1.745-0.781-1.745-1.745c0-0.964 0.781-1.745 1.745-1.745s1.745 0.781 1.745 1.745z"></path>
</symbol>
<symbol id="Social-links-1" viewBox="0 0 300 64">
<path fill="#fff" style="fill: var(--color1, #fff)" opacity="0.1" d="M299.636 32c0 8.837-3.581 16.837-9.373 22.627-5.791 5.791-13.791 9.373-22.627 9.373s-16.836-3.582-22.627-9.373c-5.792-5.791-9.373-13.791-9.373-22.628s3.581-16.837 9.373-22.627c5.791-5.791 13.791-9.373 22.627-9.373s16.836 3.582 22.627 9.373c5.792 5.791 9.373 13.791 9.373 22.627z"></path>
<path fill="#fff" style="fill: var(--color1, #fff)" d="M282.175 46.546v-0.001h0.007v-10.669c0-5.22-1.123-9.24-7.226-9.24-2.932 0-4.902 1.61-5.705 3.136h-0.084v-2.648h-5.786v19.422h6.025v-9.617c0-2.532 0.48-4.981 3.616-4.981 3.089 0 3.135 2.89 3.135 5.143v9.456h6.019z"></path>
<path fill="#fff" style="fill: var(--color1, #fff)" d="M253.571 27.124h6.032v19.422h-6.032v-19.422z"></path>
<path fill="#fff" style="fill: var(--color1, #fff)" d="M256.585 17.455c-1.929 0-3.494 1.565-3.494 3.493s1.565 3.526 3.494 3.526c1.927 0 3.492-1.598 3.492-3.526-0.001-1.929-1.565-3.493-3.492-3.493v0z"></path>
<path fill="#fff" style="fill: var(--color1, #fff)" opacity="0.1" d="M221.091 32c0 8.837-3.581 16.837-9.373 22.627-5.791 5.791-13.791 9.373-22.627 9.373s-16.836-3.582-22.627-9.373c-5.792-5.791-9.373-13.791-9.373-22.628s3.581-16.837 9.373-22.627c5.791-5.791 13.791-9.373 22.627-9.373s16.836 3.582 22.627 9.373c5.792 5.791 9.373 13.791 9.373 22.627z"></path>
<path fill="#fff" style="fill: var(--color1, #fff)" d="M193.936 22.285h2.656v-4.625c-0.458-0.063-2.035-0.205-3.869-0.205-3.83 0-6.452 2.408-6.452 6.835v4.074h-4.225v5.171h4.225v13.011h5.181v-13.010h4.054l0.644-5.171h-4.7v-3.562c0.001-1.495 0.403-2.518 2.486-2.518z"></path>
<path fill="#2196f3" style="fill: var(--color2, #2196f3)" d="M142.545 32c0 8.837-3.582 16.837-9.373 22.627s-13.791 9.373-22.627 9.373-16.837-3.582-22.627-9.373c-5.791-5.791-9.373-13.791-9.373-22.628s3.582-16.837 9.373-22.627c5.791-5.791 13.791-9.373 22.627-9.373s16.837 3.582 22.627 9.373c5.791 5.791 9.373 13.791 9.373 22.627z"></path>
<path fill="#fff" style="fill: var(--color1, #fff)" d="M125.091 22.98c-1.082 0.474-2.235 0.789-3.436 0.942 1.236-0.738 2.18-1.898 2.624-3.296-1.153 0.687-2.425 1.173-3.782 1.444-1.095-1.165-2.655-1.887-4.356-1.887-3.302 0-5.96 2.68-5.96 5.965 0 0.473 0.040 0.927 0.138 1.36-4.958-0.242-9.345-2.618-12.293-6.238-0.515 0.893-0.816 1.915-0.816 3.015 0 2.065 1.064 3.896 2.649 4.956-0.958-0.018-1.898-0.296-2.695-0.735 0 0.018 0 0.042 0 0.065 0 2.898 2.067 5.305 4.778 5.86-0.486 0.133-1.015 0.196-1.564 0.196-0.382 0-0.767-0.022-1.129-0.102 0.773 2.362 2.966 4.098 5.573 4.155-2.029 1.587-4.605 2.544-7.394 2.544-0.489 0-0.958-0.022-1.427-0.082 2.642 1.704 5.773 2.676 9.149 2.676 10.975 0 16.975-9.091 16.975-16.971 0-0.264-0.009-0.518-0.022-0.771 1.184-0.84 2.178-1.889 2.989-3.096z"></path>
<path fill="#fff" style="fill: var(--color1, #fff)" opacity="0.1" d="M64 32c0 8.837-3.582 16.837-9.373 22.627s-13.791 9.373-22.628 9.373-16.837-3.582-22.627-9.373c-5.791-5.791-9.373-13.791-9.373-22.628s3.582-16.837 9.373-22.627c5.791-5.791 13.791-9.373 22.627-9.373s16.837 3.582 22.628 9.373c5.791 5.791 9.373 13.791 9.373 22.627z"></path>
<path fill="#fff" style="fill: var(--color1, #fff)" d="M46.517 26.007c-0.068-1.546-0.318-2.608-0.676-3.529-0.369-0.977-0.938-1.852-1.682-2.58-0.727-0.739-1.608-1.313-2.574-1.677-0.926-0.358-1.983-0.608-3.529-0.676-1.557-0.074-2.052-0.091-6.001-0.091s-4.444 0.017-5.995 0.085c-1.546 0.068-2.608 0.318-3.529 0.676-0.978 0.369-1.853 0.938-2.58 1.682-0.739 0.727-1.313 1.608-1.677 2.574-0.358 0.926-0.608 1.983-0.676 3.529-0.074 1.557-0.091 2.052-0.091 6.001s0.017 4.444 0.085 5.995c0.068 1.546 0.318 2.608 0.676 3.529 0.369 0.977 0.943 1.852 1.682 2.58 0.727 0.739 1.608 1.313 2.574 1.676 0.926 0.358 1.983 0.608 3.529 0.676 1.551 0.068 2.046 0.085 5.996 0.085s4.444-0.017 5.995-0.085c1.546-0.068 2.608-0.318 3.529-0.676 1.955-0.756 3.501-2.302 4.257-4.256 0.358-0.926 0.608-1.984 0.676-3.529 0.068-1.552 0.085-2.046 0.085-5.995s-0.006-4.444-0.074-5.995zM43.897 37.885c-0.063 1.421-0.301 2.188-0.5 2.699-0.489 1.267-1.495 2.273-2.762 2.762-0.511 0.199-1.284 0.438-2.699 0.5-1.534 0.068-1.995 0.085-5.876 0.085s-4.348-0.017-5.876-0.085c-1.421-0.062-2.188-0.301-2.699-0.5-0.631-0.233-1.205-0.602-1.671-1.086-0.483-0.472-0.852-1.040-1.085-1.671-0.199-0.511-0.438-1.284-0.5-2.699-0.068-1.534-0.085-1.995-0.085-5.876s0.017-4.347 0.085-5.876c0.062-1.421 0.301-2.188 0.5-2.699 0.233-0.631 0.602-1.205 1.091-1.671 0.471-0.483 1.040-0.852 1.671-1.085 0.511-0.199 1.284-0.438 2.699-0.5 1.534-0.068 1.995-0.085 5.876-0.085 3.887 0 4.347 0.017 5.876 0.085 1.421 0.063 2.188 0.301 2.7 0.5 0.631 0.233 1.205 0.602 1.671 1.085 0.483 0.472 0.852 1.040 1.086 1.671 0.199 0.511 0.438 1.284 0.5 2.699 0.068 1.534 0.085 1.995 0.085 5.876s-0.017 4.336-0.085 5.871z"></path>
<path fill="#fff" style="fill: var(--color1, #fff)" d="M32.054 24.53c-4.126 0-7.473 3.347-7.473 7.473s3.347 7.473 7.473 7.473c4.126 0 7.473-3.347 7.473-7.473s-3.347-7.473-7.473-7.473zM32.054 36.85c-2.677 0-4.848-2.171-4.848-4.848s2.171-4.848 4.848-4.848c2.677 0 4.848 2.171 4.848 4.848s-2.171 4.848-4.848 4.848z"></path>
<path fill="#fff" style="fill: var(--color1, #fff)" d="M41.567 24.234c0 0.963-0.781 1.745-1.745 1.745s-1.745-0.781-1.745-1.745c0-0.964 0.781-1.745 1.745-1.745s1.745 0.781 1.745 1.745z"></path>
</symbol>
<symbol id="antenna" viewBox="0 0 64 64">
<path fill="#212121" style="fill: var(--color3, #212121)" d="M61.546 44.195l-16.886-17.010 1.874-9.231c0.484 0.189 0.998 0.287 1.517 0.291h0.013c2.385 0.028 4.34-1.882 4.369-4.267s-1.882-4.34-4.267-4.369c-2.385-0.028-4.34 1.882-4.369 4.266-0.006 0.51 0.078 1.018 0.249 1.498l-9.92 1.211-16.181-16.266c-0.198-0.203-0.47-0.318-0.753-0.32-0.28 0.001-0.548 0.113-0.747 0.31l-3.025 3.008c-0.416 0.417-0.416 1.092 0 1.508l1.628 1.651c-6.306 11.596-4.258 25.956 5.039 35.326 0.085 0.082 0.184 0.148 0.292 0.195-0.067 0.361-0.102 0.727-0.105 1.094v12.373h-12.8c-2.944 0.004-5.33 2.389-5.333 5.333v2.133c0 0.589 0.478 1.067 1.067 1.067h49.067c0.589 0 1.067-0.478 1.067-1.067v-2.133c-0.004-2.944-2.389-5.33-5.333-5.333h-12.8v-5.484c2.005 0.421 4.048 0.635 6.097 0.64 4.916-0.005 9.754-1.231 14.080-3.567l1.636 1.646c0.199 0.203 0.469 0.318 0.753 0.32 0.28-0.001 0.548-0.113 0.747-0.31l3.025-3.008c0.416-0.417 0.416-1.092 0-1.508zM46.56 12.466c0.835-0.831 2.186-0.827 3.017 0.008s0.827 2.186-0.008 3.017c-0.4 0.398-0.941 0.621-1.505 0.621h-0.006c-1.178-0.006-2.128-0.966-2.122-2.144 0.003-0.564 0.229-1.104 0.629-1.502h-0.004zM44.049 19.475l-1.197 5.891-2.351-2.365 3.548-3.526zM42.837 17.672l-3.84 3.818-2.971-2.987 6.811-0.831zM48.008 57.6c1.767 0 3.2 1.433 3.2 3.2v1.067h-46.933v-1.067c0-1.767 1.433-3.2 3.2-3.2h40.533zM33.075 53.333v2.133h-10.667v-2.133h10.667zM22.408 51.2v-8.107c0-2.588 2.393-4.693 5.333-4.693s5.333 2.106 5.333 4.693v8.107h-10.667zM35.208 47.808v-4.715c0-3.764-3.349-6.827-7.467-6.827-2.662-0.041-5.151 1.314-6.562 3.572-8.116-8.548-9.943-21.29-4.557-31.774l37.204 37.417c-5.745 2.922-12.33 3.745-18.618 2.326zM57.786 46.441l-42.114-42.362 1.509-1.504 15.87 15.96c0.007 0 0.012 0.014 0.019 0.019l26.229 26.383-1.514 1.504z"></path>
<path fill="#2196f3" style="fill: var(--color2, #2196f3)" d="M27.751 40.533h-0.010c-1.767-0.003-3.202 1.428-3.205 3.195s1.428 3.202 3.195 3.205h0.010c1.767 0.003 3.202-1.428 3.205-3.195s-1.428-3.202-3.195-3.205zM28.498 44.49c-0.201 0.2-0.473 0.312-0.756 0.31-0.589-0.003-1.064-0.483-1.061-1.072 0.002-0.282 0.115-0.552 0.314-0.751 0.199-0.197 0.467-0.309 0.747-0.31 0.589 0.003 1.064 0.483 1.061 1.072-0.001 0.282-0.114 0.552-0.314 0.751h0.010z"></path>
</symbol>
<symbol id="astronaut" viewBox="0 0 64 64">
<path fill="#2196f3" style="fill: var(--color2, #2196f3)" d="M63.948 9.048c-0.126-0.385-0.459-0.667-0.861-0.725l-3.821-0.556-1.71-3.462c-0.358-0.73-1.554-0.73-1.913 0l-1.71 3.462-3.821 0.556c-0.402 0.059-0.735 0.339-0.862 0.725-0.125 0.386-0.021 0.811 0.27 1.093l2.766 2.696-0.653 3.806c-0.068 0.4 0.096 0.804 0.423 1.043 0.332 0.241 0.765 0.271 1.124 0.081l3.418-1.797 3.418 1.797c0.156 0.082 0.328 0.123 0.497 0.123 0.221 0 0.442-0.068 0.627-0.204 0.328-0.239 0.493-0.643 0.423-1.043l-0.653-3.806 2.766-2.695c0.29-0.284 0.394-0.707 0.27-1.093zM59.022 11.702c-0.251 0.244-0.366 0.598-0.306 0.944l0.382 2.228-2.001-1.052c-0.156-0.082-0.326-0.123-0.497-0.123s-0.34 0.040-0.497 0.123l-2.001 1.052 0.382-2.228c0.060-0.346-0.056-0.699-0.306-0.944l-1.62-1.579 2.238-0.325c0.348-0.050 0.648-0.269 0.803-0.584l1.001-2.027 1.001 2.027c0.156 0.315 0.456 0.533 0.803 0.584l2.238 0.325-1.618 1.579z"></path>
<path fill="#2196f3" style="fill: var(--color2, #2196f3)" d="M52.267 41.044h-2.133v2.133h2.133v-2.133z"></path>
<path fill="#2196f3" style="fill: var(--color2, #2196f3)" d="M52.267 45.311h-2.133v2.133h2.133v-2.133z"></path>
<path fill="#2196f3" style="fill: var(--color2, #2196f3)" d="M54.4 43.178h-2.133v2.133h2.133v-2.133z"></path>
<path fill="#2196f3" style="fill: var(--color2, #2196f3)" d="M50.134 43.178h-2.133v2.133h2.133v-2.133z"></path>
<path fill="#2196f3" style="fill: var(--color2, #2196f3)" d="M44.8 52.778h-2.133v2.133h2.133v-2.133z"></path>
<path fill="#2196f3" style="fill: var(--color2, #2196f3)" d="M44.8 57.045h-2.133v2.133h2.133v-2.133z"></path>
<path fill="#2196f3" style="fill: var(--color2, #2196f3)" d="M46.934 54.911h-2.133v2.133h2.133v-2.133z"></path>
<path fill="#2196f3" style="fill: var(--color2, #2196f3)" d="M42.667 54.911h-2.133v2.133h2.133v-2.133z"></path>
<path fill="#2196f3" style="fill: var(--color2, #2196f3)" d="M32 48.511h-2.133v2.133h2.133v-2.133z"></path>
<path fill="#2196f3" style="fill: var(--color2, #2196f3)" d="M32 52.778h-2.133v2.133h2.133v-2.133z"></path>
<path fill="#2196f3" style="fill: var(--color2, #2196f3)" d="M34.133 50.645h-2.133v2.133h2.133v-2.133z"></path>
<path fill="#2196f3" style="fill: var(--color2, #2196f3)" d="M29.867 50.645h-2.133v2.133h2.133v-2.133z"></path>
<path fill="#2196f3" style="fill: var(--color2, #2196f3)" d="M11.733 12.244h-2.133v2.133h2.133v-2.133z"></path>
<path fill="#2196f3" style="fill: var(--color2, #2196f3)" d="M11.733 16.511h-2.133v2.133h2.133v-2.133z"></path>
<path fill="#2196f3" style="fill: var(--color2, #2196f3)" d="M13.866 14.377h-2.133v2.133h2.133v-2.133z"></path>
<path fill="#2196f3" style="fill: var(--color2, #2196f3)" d="M9.6 14.377h-2.133v2.133h2.133v-2.133z"></path>
<path fill="#212121" style="fill: var(--color3, #212121)" d="M49.43 28.319c-0.575-0.776-1.419-1.275-2.377-1.409-0.962-0.137-1.911 0.116-2.679 0.704l-2.505 1.92-3.795 2.834-2.716-1.082c4.843-2.173 8.227-7.017 8.227-12.64 0-7.646-6.245-13.867-13.922-13.867s-13.922 6.221-13.922 13.867c0 2.771 0.829 5.348 2.24 7.517l-5.528-0.048c-0.003 0-0.006 0-0.010 0-0.017 0-0.031 0.009-0.047 0.010-0.106 0.004-0.209 0.026-0.31 0.062-0.026 0.010-0.052 0.015-0.077 0.027-0.013 0.005-0.026 0.006-0.038 0.013l-6.466 3.192c-0.001 0-0.002 0-0.002 0.001l-3.787 1.821c-0.042 0.018-0.084 0.043-0.126 0.070-1.509 1.005-2.023 2.978-1.197 4.591 0.441 0.858 1.19 1.489 2.112 1.778 0.355 0.111 0.718 0.165 1.078 0.165 0.579 0 1.153-0.142 1.679-0.422l2.776-1.476 4.528-2.338 2.714-0.016-10.883 10.831c-0.001 0.001-0.002 0.001-0.003 0.002l-2.677 2.667c-0.632 0.629-0.98 1.465-0.98 2.355 0 0.89 0.348 1.727 0.98 2.357 0.65 0.646 1.504 0.971 2.358 0.971 0.856 0 1.709-0.324 2.361-0.971l2.628-2.618 3.482-2.599 1.802 1.794-3.523 3.508c-0.001 0.001-0.002 0.001-0.003 0.002l-2.677 2.667c-0.633 0.629-0.98 1.465-0.98 2.355s0.348 1.727 0.98 2.358c0.65 0.646 1.505 0.971 2.36 0.971s1.71-0.324 2.361-0.971l6.963-6.933c0.001-0.001 0.001-0.002 0.002-0.003l2.019-2-0.008-0.008c0.013-0.013 0.031-0.017 0.044-0.031l10.332-11.316 6.942 0.988c0.050 0.008 0.1 0.011 0.15 0.011 0.129 0 0.254-0.031 0.374-0.077 0.035-0.013 0.066-0.030 0.099-0.047 0.038-0.019 0.079-0.030 0.115-0.054l6.427-4.267c0.023-0.016 0.036-0.042 0.059-0.059 0.026-0.020 0.058-0.029 0.081-0.051l2.543-2.382c1.323-1.24 1.506-3.271 0.424-4.724zM4.261 35.54c-0.347 0.186-0.74 0.223-1.117 0.103-0.373-0.116-0.676-0.371-0.853-0.716-0.322-0.627-0.135-1.391 0.429-1.804l2.627-1.264 0.898 2.625-1.984 1.055zM11.255 31.885l-3.097 1.6-0.878-2.567 4.054-2.001-0.079 2.968zM41.454 18.644c0 1.837-0.438 3.569-1.198 5.119l-8.363-3.799c-0.087-1.147-0.683-2.15-1.576-2.776l2.928-9.721c4.755 1.513 8.209 5.949 8.209 11.176zM17.876 18.644c0-6.47 5.289-11.734 11.789-11.734 0.506 0 1 0.043 1.49 0.104l-2.864 9.507c-0.038-0.001-0.075-0.012-0.114-0.012-2.065 0-3.745 1.675-3.745 3.733s1.68 3.733 3.745 3.733c1.389 0 2.589-0.767 3.236-1.889l7.725 3.509c-2.149 2.893-5.59 4.78-9.473 4.78-6.5 0-11.789-5.264-11.789-11.734zM29.789 20.244c0 0.882-0.723 1.6-1.612 1.6s-1.612-0.718-1.612-1.6c0-0.882 0.723-1.6 1.612-1.6s1.612 0.718 1.612 1.6zM4.93 50.293c-0.473 0.468-1.237 0.467-1.709 0.001-0.227-0.227-0.352-0.527-0.352-0.846 0-0.318 0.125-0.618 0.352-0.843l1.924-1.917 1.702 1.695-1.918 1.909zM11.357 57.759c-0.473 0.468-1.238 0.469-1.71 0.001-0.227-0.227-0.352-0.527-0.352-0.846 0-0.318 0.125-0.618 0.352-0.843l1.925-1.918 1.704 1.695-1.919 1.91zM18.321 50.822c-0.001 0.001-0.002 0.001-0.003 0.002l-3.53 3.52-1.704-1.695 3.526-3.51c0 0 0 0 0-0.001 0.001-0.001 0.002-0.001 0.003-0.002 0.080-0.080 0.13-0.176 0.179-0.271 0.014-0.028 0.041-0.051 0.052-0.080 0.033-0.082 0.038-0.171 0.051-0.257 0.006-0.049 0.028-0.095 0.028-0.145 0-0.072-0.026-0.141-0.041-0.211-0.013-0.064-0.013-0.129-0.037-0.191-0.041-0.1-0.11-0.189-0.182-0.275-0.020-0.023-0.028-0.053-0.050-0.076 0 0 0 0-0.001 0s-0.001-0.003-0.002-0.004l-3.214-3.2c-0.034-0.034-0.078-0.048-0.116-0.077-0.056-0.044-0.111-0.084-0.174-0.115-0.061-0.030-0.123-0.048-0.187-0.065-0.068-0.019-0.134-0.034-0.206-0.039-0.065-0.004-0.126 0.002-0.191 0.010-0.072 0.008-0.139 0.018-0.208 0.041-0.067 0.021-0.127 0.054-0.189 0.090-0.040 0.022-0.084 0.030-0.122 0.058l-3.547 2.648-1.802-1.794 4.798-4.772 8.721 8.577-1.855 1.838zM31.958 36.788c-0.031-0.004-0.060 0.008-0.091 0.005-0.078-0.004-0.152 0.001-0.23 0.014-0.061 0.011-0.118 0.022-0.176 0.043-0.068 0.023-0.13 0.056-0.193 0.094-0.060 0.036-0.114 0.075-0.166 0.123-0.026 0.022-0.056 0.033-0.080 0.059l-9.397 10.291-8.656-8.513 5.666-5.636c0.417-0.416 0.419-1.091 0.003-1.509-0.21-0.21-0.486-0.314-0.763-0.313v-0.001l-4.437 0.027 0.056-3.215 6.208 0.053c2.53 2.588 6.059 4.202 9.963 4.202 0.875 0 1.728-0.091 2.559-0.245 0.080 0.064 0.159 0.129 0.259 0.17l4.819 1.92 0.305 1.517 0.356 1.771-6.005-0.854zM40.041 37.145l-0.626-3.116 2.893-2.16 1.893 2.513-4.16 2.763zM47.548 31.483l-1.676 1.57-1.862-2.473 1.663-1.275c0.31-0.239 0.702-0.336 1.086-0.286 0.386 0.054 0.727 0.256 0.96 0.569 0.433 0.584 0.359 1.397-0.171 1.894z"></path>
<path fill="#212121" style="fill: var(--color3, #212121)" d="M27.204 37.088l-4.286-4.267c-0.415-0.415-1.089-0.415-1.505 0l-4.285 4.267c-0.201 0.202-0.314 0.472-0.314 0.756s0.112 0.556 0.314 0.756l4.285 4.267c0.208 0.207 0.481 0.31 0.753 0.31s0.545-0.103 0.752-0.31l4.286-4.267c0.201-0.2 0.315-0.472 0.315-0.756s-0.113-0.556-0.315-0.756zM22.166 40.606l-2.773-2.762 2.773-2.762 2.774 2.762-2.774 2.762z"></path>
<path fill="#212121" style="fill: var(--color3, #212121)" d="M34.328 10.142l-0.515 2.072c0.142 0.035 3.475 0.903 3.475 4.298h2.133c-0-4.034-3.331-5.931-5.093-6.369z"></path>
<path fill="#212121" style="fill: var(--color3, #212121)" d="M39.422 18.644h-2.133v2.133h2.133v-2.133z"></path>
</symbol>
<symbol id="clock" viewBox="0 0 64 64">
<path fill="#212121" style="fill: var(--color3, #212121)" d="M62.593 30.602c-0.004-16.905-13.71-30.606-30.616-30.602s-30.606 13.711-30.602 30.616c0.003 13.316 8.614 25.102 21.299 29.152 0.121 0.038 0.247 0.058 0.374 0.057 0.241-0 0.478-0.065 0.685-0.188 0.27-0.16 0.472-0.414 0.566-0.713l7.73-24.5c2.113-0.011 3.817-1.733 3.806-3.846s-1.732-3.817-3.846-3.807c-0.568 0.002-1.129 0.133-1.64 0.383l-10.212-10.213c-0.507-0.489-1.314-0.475-1.803 0.031-0.478 0.495-0.478 1.278 0 1.772l10.207 10.218c-0.783 1.599-0.335 3.528 1.073 4.618l-7.365 23.346c-14.556-5.362-22.009-21.508-16.647-36.063s21.508-22.009 36.063-16.647 22.009 21.508 16.647 36.063c-2.62 7.111-8.002 12.862-14.924 15.947l-0.796-3.749c-0.145-0.689-0.823-1.129-1.512-0.983-0.217 0.046-0.419 0.148-0.585 0.296l-7.674 6.851c-0.526 0.468-0.573 1.274-0.105 1.801 0.152 0.171 0.348 0.298 0.566 0.368l9.797 3.127c0.67 0.215 1.389-0.153 1.604-0.824 0.068-0.212 0.080-0.438 0.034-0.655l-0.782-3.678c11.329-4.776 18.684-15.884 18.658-28.178v0zM31.984 29.327c0.704 0 1.275 0.571 1.275 1.275s-0.571 1.275-1.275 1.275c-0.705 0-1.275-0.571-1.275-1.275s0.571-1.275 1.275-1.275zM36.185 59.055l4.368-3.897 1.206 5.681-5.574-1.784z"></path>
<path fill="#2196f3" style="fill: var(--color2, #2196f3)" d="M30.709 6.37v2.551c0 0.705 0.571 1.275 1.275 1.275s1.275-0.571 1.275-1.275v-2.551c0-0.704-0.571-1.275-1.275-1.275s-1.275 0.571-1.275 1.275z"></path>
<path fill="#2196f3" style="fill: var(--color2, #2196f3)" d="M7.752 29.327c-0.705 0-1.275 0.571-1.275 1.275s0.571 1.275 1.275 1.275h2.551c0.705 0 1.275-0.571 1.275-1.275s-0.571-1.275-1.275-1.275h-2.551z"></path>
<path fill="#2196f3" style="fill: var(--color2, #2196f3)" d="M56.216 31.878c0.705 0 1.275-0.571 1.275-1.275s-0.571-1.275-1.275-1.275h-2.551c-0.704 0-1.275 0.571-1.275 1.275s0.571 1.275 1.275 1.275h2.551z"></path>
</symbol>
<symbol id="diagram" viewBox="0 0 64 64">
<path fill="#2196f3" style="fill: var(--color2, #2196f3)" d="M29.851 29.929h2.132v9.595h-2.132v-9.595z"></path>
<path fill="#2196f3" style="fill: var(--color2, #2196f3)" d="M38.38 34.194h2.132v5.331h-2.132v-5.331z"></path>
<path fill="#2196f3" style="fill: var(--color2, #2196f3)" d="M21.322 37.392h2.132v2.132h-2.132v-2.132z"></path>
<path fill="#2196f3" style="fill: var(--color2, #2196f3)" d="M14.926 36.326h2.132v3.198h-2.132v-3.198z"></path>
<path fill="#212121" style="fill: var(--color3, #212121)" d="M3.198 56.582h51.173c1.766 0 3.198-1.432 3.198-3.198v-4.264c0-1.766-1.432-3.198-3.198-3.198h-1.066v-26.587l6.056-5.737c1.406 0.693 3.107 0.272 4.026-0.997s0.791-3.017-0.305-4.137-2.84-1.287-4.13-0.396c-1.289 0.892-1.747 2.584-1.085 4.004l-4.563 4.325v-2.46c0-1.766-1.432-3.198-3.198-3.198h-42.644c-1.766 0-3.198 1.432-3.198 3.198v31.983h-1.066c-1.766 0-3.198 1.432-3.198 3.198v4.264c0 1.766 1.432 3.198 3.198 3.198zM60.768 9.673c0.589 0 1.066 0.477 1.066 1.066s-0.477 1.066-1.066 1.066c-0.589 0-1.066-0.477-1.066-1.066s0.477-1.066 1.066-1.066zM6.397 13.938c0-0.589 0.477-1.066 1.066-1.066h42.644c0.589 0 1.066 0.477 1.066 1.066v4.477l-2.132 2.026v-4.371c0-0.589-0.477-1.066-1.066-1.066h-38.38c-0.589 0-1.066 0.477-1.066 1.066v26.653c0 0.589 0.477 1.066 1.066 1.066h38.38c0.589 0 1.066-0.477 1.066-1.066v-19.349l2.132-2.020v24.567h-44.777v-31.983zM15.992 27.797c-1.442-0.004-2.709 0.957-3.093 2.347s0.21 2.865 1.451 3.601c1.24 0.736 2.82 0.551 3.856-0.452l3.706 1.859c0.431 0.216 0.953 0.115 1.273-0.245l7.878-8.863 7.744 5.803c0.415 0.311 0.995 0.278 1.372-0.079l6.73-6.375v16.262h-36.248v-24.52h36.248v5.321l-7.543 7.143-7.809-5.854c-0.444-0.332-1.068-0.27-1.436 0.144l-7.986 8.985-2.985-1.493c0.022-0.128 0.035-0.257 0.041-0.387 0-1.766-1.432-3.198-3.198-3.198zM17.058 30.995c0 0.589-0.477 1.066-1.066 1.066s-1.066-0.477-1.066-1.066c0-0.589 0.477-1.066 1.066-1.066s1.066 0.477 1.066 1.066zM23.454 48.053h10.661v1.066c0 0.589-0.477 1.066-1.066 1.066h-8.529c-0.589 0-1.066-0.477-1.066-1.066v-1.066zM2.132 49.119c0-0.589 0.477-1.066 1.066-1.066h18.124v1.066c0 1.766 1.432 3.198 3.198 3.198h8.529c1.766 0 3.198-1.432 3.198-3.198v-1.066h18.124c0.589 0 1.066 0.477 1.066 1.066v4.264c0 0.589-0.477 1.066-1.066 1.066h-51.173c-0.589 0-1.066-0.477-1.066-1.066v-4.264z"></path>
</symbol>
<symbol id="twitter" viewBox="0 0 64 64">
<path fill="#fff" style="fill: var(--color1, #fff)" d="M64 32c0 8.837-3.582 16.837-9.373 22.628s-13.791 9.373-22.627 9.373-16.837-3.582-22.627-9.373c-5.791-5.791-9.373-13.791-9.373-22.628s3.582-16.837 9.373-22.627 13.791-9.373 22.627-9.373c8.837 0 16.837 3.582 22.627 9.373s9.373 13.791 9.373 22.627z"></path>
<path fill="#afb1b8" style="fill: var(--color4, #afb1b8)" d="M46.545 22.98c-1.082 0.474-2.235 0.789-3.436 0.942 1.236-0.738 2.18-1.898 2.624-3.296-1.153 0.687-2.426 1.173-3.782 1.444-1.095-1.165-2.655-1.887-4.356-1.887-3.302 0-5.96 2.68-5.96 5.965 0 0.473 0.040 0.927 0.138 1.36-4.958-0.242-9.345-2.618-12.293-6.238-0.515 0.893-0.816 1.915-0.816 3.015 0 2.065 1.064 3.896 2.649 4.956-0.958-0.018-1.898-0.296-2.695-0.735 0 0.018 0 0.042 0 0.065 0 2.898 2.067 5.305 4.778 5.86-0.485 0.133-1.015 0.196-1.564 0.196-0.382 0-0.767-0.022-1.129-0.102 0.773 2.362 2.965 4.098 5.573 4.155-2.029 1.587-4.605 2.544-7.395 2.544-0.489 0-0.958-0.022-1.427-0.082 2.642 1.704 5.773 2.676 9.149 2.676 10.975 0 16.975-9.091 16.975-16.971 0-0.264-0.009-0.518-0.022-0.771 1.184-0.84 2.178-1.889 2.989-3.096z"></path>
</symbol>
<symbol id="facebook" viewBox="0 0 64 64">
<path fill="#fff" style="fill: var(--color1, #fff)" d="M64 32c0 8.837-3.582 16.837-9.373 22.628s-13.791 9.373-22.627 9.373-16.837-3.582-22.627-9.373c-5.791-5.791-9.373-13.791-9.373-22.628s3.582-16.837 9.373-22.627 13.791-9.373 22.627-9.373c8.837 0 16.837 3.582 22.627 9.373s9.373 13.791 9.373 22.627z"></path>
<path fill="#afb1b8" style="fill: var(--color4, #afb1b8)" d="M36.845 22.285h2.656v-4.625c-0.458-0.063-2.034-0.205-3.869-0.205-3.829 0-6.452 2.408-6.452 6.835v4.074h-4.225v5.171h4.225v13.011h5.181v-13.010h4.055l0.644-5.171h-4.699v-3.562c0.001-1.495 0.404-2.518 2.486-2.518v0z"></path>
</symbol>
<symbol id="linkedin" viewBox="0 0 64 64">
<path fill="#fff" style="fill: var(--color1, #fff)" d="M64 32c0 8.837-3.582 16.837-9.373 22.628s-13.791 9.373-22.627 9.373-16.837-3.582-22.627-9.373c-5.791-5.791-9.373-13.791-9.373-22.628s3.582-16.837 9.373-22.627 13.791-9.373 22.627-9.373c8.837 0 16.837 3.582 22.627 9.373s9.373 13.791 9.373 22.627z"></path>
<path fill="#afb1b8" style="fill: var(--color4, #afb1b8)" d="M46.538 46.545v-0.001h0.007v-10.669c0-5.219-1.124-9.24-7.225-9.24-2.933 0-4.902 1.61-5.705 3.136h-0.085v-2.648h-5.785v19.422h6.024v-9.617c0-2.532 0.48-4.98 3.616-4.98 3.090 0 3.136 2.89 3.136 5.143v9.456h6.018z"></path>
<path fill="#afb1b8" style="fill: var(--color4, #afb1b8)" d="M17.935 27.124h6.032v19.422h-6.032v-19.422z"></path>
<path fill="#afb1b8" style="fill: var(--color4, #afb1b8)" d="M20.948 17.455c-1.929 0-3.493 1.565-3.493 3.493s1.565 3.526 3.493 3.526c1.928 0 3.493-1.598 3.493-3.526-0.001-1.929-1.566-3.493-3.493-3.493v0z"></path>
</symbol>
<symbol id="instagram" viewBox="0 0 64 64">
<path fill="#fff" style="fill: var(--color1, #fff)" d="M64 32c0 8.837-3.582 16.837-9.373 22.628s-13.791 9.373-22.627 9.373-16.837-3.582-22.627-9.373c-5.791-5.791-9.373-13.791-9.373-22.628s3.582-16.837 9.373-22.627 13.791-9.373 22.627-9.373c8.837 0 16.837 3.582 22.627 9.373s9.373 13.791 9.373 22.627z"></path>
<path fill="#afb1b8" style="fill: var(--color4, #afb1b8)" d="M46.517 26.007c-0.068-1.546-0.318-2.608-0.676-3.529-0.369-0.977-0.938-1.852-1.682-2.58-0.727-0.739-1.608-1.313-2.574-1.677-0.926-0.358-1.983-0.608-3.529-0.676-1.557-0.074-2.052-0.091-6.001-0.091s-4.444 0.017-5.995 0.085c-1.546 0.068-2.608 0.318-3.529 0.676-0.978 0.369-1.853 0.938-2.58 1.682-0.739 0.727-1.313 1.608-1.677 2.574-0.358 0.926-0.608 1.983-0.676 3.529-0.074 1.557-0.091 2.052-0.091 6.001s0.017 4.444 0.085 5.995c0.068 1.546 0.318 2.608 0.676 3.529 0.369 0.977 0.943 1.852 1.682 2.58 0.727 0.739 1.608 1.313 2.574 1.676 0.926 0.358 1.983 0.608 3.529 0.676 1.551 0.068 2.046 0.085 5.996 0.085s4.444-0.017 5.995-0.085c1.546-0.068 2.608-0.318 3.529-0.676 1.955-0.756 3.501-2.302 4.257-4.256 0.358-0.926 0.608-1.984 0.676-3.529 0.068-1.552 0.085-2.046 0.085-5.995s-0.006-4.444-0.074-5.995zM43.897 37.885c-0.063 1.421-0.301 2.188-0.5 2.699-0.489 1.267-1.495 2.273-2.762 2.762-0.511 0.199-1.284 0.438-2.699 0.5-1.534 0.068-1.995 0.085-5.876 0.085s-4.348-0.017-5.876-0.085c-1.421-0.062-2.188-0.301-2.699-0.5-0.631-0.233-1.205-0.602-1.671-1.086-0.483-0.472-0.852-1.040-1.085-1.671-0.199-0.511-0.438-1.284-0.5-2.699-0.068-1.534-0.085-1.995-0.085-5.876s0.017-4.347 0.085-5.876c0.062-1.421 0.301-2.188 0.5-2.699 0.233-0.631 0.602-1.205 1.091-1.671 0.471-0.483 1.040-0.852 1.671-1.085 0.511-0.199 1.284-0.438 2.699-0.5 1.534-0.068 1.995-0.085 5.876-0.085 3.887 0 4.347 0.017 5.876 0.085 1.421 0.063 2.188 0.301 2.7 0.5 0.631 0.233 1.205 0.602 1.671 1.085 0.483 0.472 0.852 1.040 1.086 1.671 0.199 0.511 0.438 1.284 0.5 2.699 0.068 1.534 0.085 1.995 0.085 5.876s-0.017 4.336-0.085 5.871z"></path>
<path fill="#afb1b8" style="fill: var(--color4, #afb1b8)" d="M32.054 24.53c-4.126 0-7.473 3.347-7.473 7.473s3.347 7.473 7.473 7.473c4.126 0 7.473-3.347 7.473-7.473s-3.347-7.473-7.473-7.473zM32.054 36.85c-2.677 0-4.848-2.171-4.848-4.848s2.171-4.848 4.848-4.848c2.677 0 4.848 2.171 4.848 4.848s-2.171 4.848-4.848 4.848v0z"></path>
<path fill="#afb1b8" style="fill: var(--color4, #afb1b8)" d="M41.567 24.234c0 0.963-0.781 1.745-1.745 1.745s-1.745-0.781-1.745-1.745c0-0.964 0.781-1.745 1.745-1.745s1.745 0.781 1.745 1.745v0z"></path>
</symbol>
<symbol id="mail" viewBox="0 0 85 64">
<path fill="#757575" style="fill: var(--color5, #757575)" d="M77.333 0h-69.333c-4.412 0-8 3.589-8 8v48c0 4.411 3.589 8 8 8h69.333c4.411 0 8-3.589 8-8v-48c0-4.412-3.589-8-8-8v0zM77.333 5.333c0.362 0 0.707 0.075 1.022 0.206l-35.689 30.932-35.689-30.932c0.315-0.131 0.66-0.206 1.022-0.206h69.333zM77.333 58.667h-69.333c-1.471 0-2.667-1.195-2.667-2.667v-44.826l35.586 30.841c0.503 0.435 1.125 0.651 1.747 0.651s1.245-0.216 1.747-0.651l35.586-30.841v44.826c0 1.471-1.195 2.667-2.667 2.667v0z"></path>
</symbol>
<symbol id="instagram-2" viewBox="0 0 64 64">
<path fill="#afb1b8" style="fill: var(--color4, #afb1b8)" d="M63.937 18.816c-0.15-3.401-0.7-5.738-1.487-7.764-0.813-2.15-2.063-4.075-3.701-5.676-1.6-1.625-3.538-2.888-5.664-3.688-2.037-0.788-4.363-1.338-7.764-1.488-3.426-0.163-4.514-0.2-13.203-0.2s-9.777 0.038-13.19 0.188c-3.401 0.15-5.738 0.7-7.764 1.488-2.151 0.813-4.076 2.063-5.676 3.701-1.625 1.6-2.888 3.538-3.688 5.664-0.788 2.038-1.338 4.363-1.488 7.764-0.163 3.426-0.2 4.514-0.2 13.203s0.038 9.777 0.188 13.19c0.15 3.4 0.7 5.738 1.488 7.764 0.813 2.15 2.075 4.075 3.7 5.676 1.6 1.625 3.538 2.888 5.664 3.688 2.038 0.788 4.363 1.338 7.764 1.487 3.413 0.15 4.501 0.188 13.19 0.188s9.777-0.037 13.19-0.188c3.401-0.15 5.738-0.7 7.764-1.487 4.301-1.663 7.702-5.064 9.365-9.364 0.787-2.038 1.338-4.364 1.488-7.764 0.15-3.413 0.188-4.501 0.188-13.19s-0.013-9.777-0.163-13.19zM58.174 44.946c-0.138 3.126-0.663 4.813-1.1 5.939-1.075 2.788-3.288 5.001-6.077 6.077-1.125 0.438-2.825 0.963-5.939 1.1-3.376 0.15-4.388 0.188-12.927 0.188s-9.564-0.037-12.928-0.188c-3.126-0.137-4.813-0.662-5.939-1.1-1.387-0.513-2.65-1.325-3.675-2.388-1.063-1.038-1.875-2.288-2.388-3.675-0.438-1.125-0.963-2.826-1.1-5.939-0.15-3.376-0.188-4.389-0.188-12.928s0.037-9.564 0.188-12.927c0.137-3.126 0.662-4.813 1.1-5.939 0.513-1.388 1.325-2.65 2.401-3.676 1.037-1.063 2.288-1.875 3.675-2.388 1.125-0.438 2.826-0.963 5.939-1.1 3.376-0.15 4.389-0.188 12.927-0.188 8.552 0 9.564 0.038 12.928 0.188 3.126 0.138 4.813 0.663 5.939 1.1 1.387 0.512 2.65 1.325 3.675 2.388 1.062 1.038 1.875 2.288 2.388 3.676 0.437 1.125 0.963 2.825 1.1 5.939 0.15 3.376 0.188 4.388 0.188 12.927s-0.037 9.54-0.188 12.915z"></path>
<path fill="#afb1b8" style="fill: var(--color4, #afb1b8)" d="M32.119 15.565c-9.077 0-16.441 7.364-16.441 16.441s7.364 16.441 16.441 16.441c9.077 0 16.441-7.364 16.441-16.441s-7.364-16.441-16.441-16.441zM32.119 42.671c-5.888 0-10.665-4.776-10.665-10.665s4.776-10.665 10.665-10.665c5.889 0 10.665 4.776 10.665 10.665s-4.776 10.665-10.665 10.665v0z"></path>
<path fill="#afb1b8" style="fill: var(--color4, #afb1b8)" d="M53.048 14.915c0 2.12-1.718 3.838-3.838 3.838s-3.838-1.719-3.838-3.838c0-2.12 1.719-3.838 3.838-3.838s3.838 1.718 3.838 3.838v0z"></path>
</symbol>
<symbol id="logo2" viewBox="0 0 111 64">
<path fill="#afb1b8" style="fill: var(--color4, #afb1b8)" d="M52.578 6.975h-0.143c-0.22-0.013-0.441-0.019-0.661-0.024v0h-0.478c-0.417 0-0.841 0.011-1.263 0.032-0.032-0.002-0.064-0.002-0.096 0-3.824 0.217-7.57 1.172-11.033 2.815l-0.454 0.219v23.23l1.062-0.36c0.932-0.32 1.924-0.608 2.951-0.875 2.777-0.713 5.628-1.092 8.493-1.128v3.052c-0.38 0.003-0.748 0.013-1.117 0.032h-0.088c-2.205 0.121-4.394 0.457-6.535 1.003-2.711 0.679-5.327 1.698-7.785 3.034v-29.793c2.553-1.489 5.302-2.607 8.167-3.322 2.515-0.649 5.1-0.983 7.697-0.993h0.449c0.536 0.013 1.059 0.037 1.55 0.075 1.294 0.091 2.577 0.295 3.835 0.611v3.004c-1.222-0.285-2.464-0.472-3.716-0.56-0.025-0.002-0.051-0.004-0.076-0.006-0.259-0.022-0.518-0.044-0.76-0.044zM57.865 10.045c0.666 0.051 1.356 0.075 2.054 0.075 2.73-0.010 5.448-0.359 8.092-1.038 2.71-0.681 5.324-1.701 7.782-3.036v29.262c-2.554 1.488-5.304 2.606-8.169 3.322-2.515 0.647-5.101 0.979-7.697 0.99-1.967 0.016-3.929-0.215-5.839-0.688v-29.452c0.451 0.104 0.916 0.2 1.388 0.28 0.775 0.131 1.593 0.227 2.389 0.286zM72.758 10.272l-1.062 0.357c-0.977 0.328-1.961 0.622-2.951 0.883-2.882 0.741-5.845 1.121-8.82 1.131-0.693 0-1.33-0.019-1.945-0.059l-0.847-0.056v23.897l0.727 0.064c0.674 0.059 1.37 0.088 2.070 0.088 2.343-0.010 4.676-0.312 6.946-0.899 1.869-0.469 3.687-1.122 5.428-1.95l0.454-0.219v-23.238z"></path>
<path fill="#afb1b8" style="fill: var(--color4, #afb1b8)" d="M37.495 48.184c-0.153-0.158-0.337-0.283-0.54-0.365s-0.422-0.121-0.641-0.113c-0.234-0.003-0.465 0.041-0.682 0.128-0.199 0.079-0.379 0.198-0.531 0.349-0.15 0.152-0.267 0.334-0.342 0.534-0.083 0.209-0.125 0.433-0.122 0.659v3.981c-0.009 0.281 0.044 0.559 0.157 0.816 0.094 0.204 0.23 0.386 0.398 0.533 0.159 0.134 0.346 0.231 0.547 0.283 0.194 0.054 0.394 0.082 0.594 0.083 0.222 0.002 0.441-0.045 0.642-0.139 0.199-0.087 0.379-0.212 0.531-0.368 0.148-0.155 0.266-0.336 0.348-0.534 0.085-0.201 0.128-0.417 0.127-0.635v-0.446h-1.041v0.355c0.003 0.121-0.018 0.242-0.061 0.355-0.034 0.085-0.085 0.161-0.151 0.224-0.064 0.052-0.138 0.091-0.218 0.115-0.070 0.023-0.144 0.036-0.218 0.037-0.093 0.011-0.187-0.003-0.273-0.041s-0.16-0.097-0.216-0.173c-0.098-0.16-0.146-0.346-0.138-0.533v-3.711c-0.007-0.206 0.037-0.41 0.127-0.595 0.054-0.084 0.13-0.151 0.221-0.194s0.19-0.059 0.289-0.047c0.090-0.003 0.179 0.016 0.26 0.055s0.151 0.097 0.205 0.17c0.116 0.153 0.177 0.341 0.172 0.534v0.344h1.030v-0.406c0.002-0.238-0.041-0.474-0.127-0.696-0.077-0.209-0.195-0.399-0.348-0.56v0z"></path>
<path fill="#afb1b8" style="fill: var(--color4, #afb1b8)" d="M43.676 48.139c-0.332-0.28-0.751-0.435-1.184-0.438-0.212 0.001-0.422 0.039-0.621 0.112-0.202 0.072-0.389 0.183-0.549 0.325-0.172 0.155-0.31 0.345-0.404 0.558-0.105 0.243-0.156 0.506-0.151 0.771v3.818c-0.007 0.269 0.044 0.535 0.151 0.782 0.094 0.205 0.232 0.387 0.404 0.534 0.159 0.148 0.346 0.262 0.549 0.336 0.199 0.073 0.409 0.111 0.621 0.112 0.212-0 0.422-0.038 0.621-0.112 0.207-0.075 0.398-0.189 0.563-0.336 0.166-0.149 0.3-0.331 0.393-0.534 0.107-0.246 0.158-0.513 0.151-0.782v-3.818c0.005-0.265-0.047-0.528-0.151-0.771-0.093-0.21-0.226-0.4-0.393-0.558v0zM43.191 53.285c0.009 0.102-0.005 0.204-0.041 0.3s-0.093 0.182-0.166 0.253c-0.137 0.115-0.311 0.178-0.49 0.178s-0.352-0.063-0.49-0.178c-0.073-0.071-0.13-0.157-0.166-0.253s-0.050-0.198-0.041-0.3v-3.818c-0.009-0.102 0.005-0.204 0.041-0.3s0.092-0.182 0.166-0.253c0.137-0.115 0.311-0.178 0.49-0.178s0.352 0.063 0.49 0.178c0.073 0.071 0.13 0.157 0.166 0.253s0.050 0.198 0.041 0.3v3.818z"></path>
<path fill="#afb1b8" style="fill: var(--color4, #afb1b8)" d="M51.795 54.99v-7.227h-1.001l-1.314 3.826h-0.019l-1.325-3.826h-0.99v7.227h1.032v-4.397h0.019l1.011 3.108h0.515l1.019-3.108h0.019v4.397h1.032z"></path>
<path fill="#afb1b8" style="fill: var(--color4, #afb1b8)" d="M57.661 48.269c-0.159-0.178-0.36-0.314-0.584-0.395-0.242-0.079-0.495-0.116-0.748-0.112h-1.534v7.228h1.030v-2.823h0.531c0.321 0.015 0.641-0.053 0.929-0.197 0.234-0.13 0.429-0.321 0.565-0.552 0.119-0.192 0.199-0.406 0.236-0.63 0.041-0.272 0.059-0.547 0.056-0.822 0.010-0.347-0.024-0.694-0.101-1.032-0.069-0.25-0.199-0.479-0.38-0.664v0zM57.13 50.473c-0.004 0.131-0.037 0.259-0.096 0.376-0.059 0.111-0.152 0.2-0.265 0.254-0.153 0.068-0.319 0.099-0.486 0.091h-0.47v-2.457h0.531c0.16-0.008 0.319 0.023 0.465 0.091 0.106 0.061 0.191 0.154 0.242 0.267 0.056 0.127 0.087 0.264 0.090 0.403 0 0.152 0 0.312 0 0.48s0.011 0.342 0 0.496h-0.011z"></path>
<path fill="#afb1b8" style="fill: var(--color4, #afb1b8)" d="M62.539 47.763h-0.844l-1.592 7.227h1.030l0.303-1.553h1.404l0.303 1.553h1.030l-1.632-7.227zM61.589 52.453l0.507-2.62h0.019l0.504 2.62h-1.030z"></path>
<path fill="#afb1b8" style="fill: var(--color4, #afb1b8)" d="M69.193 52.117h-0.019l-1.555-4.354h-0.99v7.227h1.030v-4.346h0.021l1.574 4.346h0.969v-7.227h-1.030v4.354z"></path>
<path fill="#afb1b8" style="fill: var(--color4, #afb1b8)" d="M75.486 47.763l-0.828 2.873h-0.021l-0.828-2.873h-1.091l1.415 4.173v3.055h1.030v-3.055l1.415-4.173h-1.091z"></path>
<path fill="#afb1b8" style="fill: var(--color4, #afb1b8)" d="M34.623 57.031h0.496v1.393h0.337v-1.393h0.494v-0.285h-1.327v0.285z"></path>
<path fill="#afb1b8" style="fill: var(--color4, #afb1b8)" d="M38.795 56.746l-0.65 1.678h0.358l0.138-0.382h0.669l0.143 0.382h0.366l-0.666-1.678h-0.358zM38.742 57.759l0.228-0.622 0.228 0.622h-0.456z"></path>
<path fill="#afb1b8" style="fill: var(--color4, #afb1b8)" d="M42.92 57.805h0.388v0.216c-0.113 0.091-0.253 0.141-0.398 0.141-0.068 0.004-0.135-0.009-0.197-0.037s-0.116-0.070-0.158-0.123c-0.089-0.128-0.133-0.282-0.125-0.438 0-0.373 0.162-0.56 0.483-0.56 0.085-0.008 0.169 0.014 0.239 0.063s0.12 0.121 0.141 0.204l0.332-0.064c-0.072-0.328-0.308-0.494-0.711-0.494-0.216-0.006-0.426 0.072-0.587 0.216-0.085 0.084-0.15 0.185-0.192 0.296s-0.059 0.231-0.050 0.35c-0.010 0.23 0.067 0.454 0.215 0.63 0.082 0.085 0.182 0.151 0.292 0.193s0.228 0.060 0.345 0.052c0.263 0.007 0.518-0.088 0.711-0.267v-0.662h-0.727v0.283z"></path>
<path fill="#afb1b8" style="fill: var(--color4, #afb1b8)" d="M47.132 56.746h-0.34v1.678h1.176v-0.285h-0.836v-1.393z"></path>
<path fill="#afb1b8" style="fill: var(--color4, #afb1b8)" d="M50.694 56.746h-0.34v1.678h0.34v-1.678z"></path>
<path fill="#afb1b8" style="fill: var(--color4, #afb1b8)" d="M54.176 57.866l-0.687-1.12h-0.329v1.678h0.316v-1.097l0.674 1.097h0.337v-1.678h-0.311v1.12z"></path>
<path fill="#afb1b8" style="fill: var(--color4, #afb1b8)" d="M57.324 57.685h0.836v-0.285h-0.836v-0.368h0.9v-0.285h-1.239v1.678h1.274v-0.285h-0.934v-0.454z"></path>
<path fill="#afb1b8" style="fill: var(--color4, #afb1b8)" d="M64.957 57.407h-0.661v-0.662h-0.337v1.678h0.337v-0.734h0.661v0.734h0.337v-1.678h-0.337v0.662z"></path>
<path fill="#afb1b8" style="fill: var(--color4, #afb1b8)" d="M68.124 57.685h0.839v-0.285h-0.839v-0.368h0.902v-0.285h-1.24v1.678h1.271v-0.285h-0.934v-0.454z"></path>
<path fill="#afb1b8" style="fill: var(--color4, #afb1b8)" d="M72.418 57.685c0.292-0.045 0.441-0.2 0.441-0.467 0.008-0.071-0.002-0.144-0.031-0.209s-0.075-0.122-0.133-0.164c-0.152-0.076-0.322-0.11-0.491-0.099h-0.711v1.678h0.337v-0.702h0.066c0.072-0.004 0.144 0.008 0.21 0.037 0.049 0.030 0.090 0.073 0.12 0.123l0.366 0.534h0.403l-0.204-0.328c-0.090-0.162-0.218-0.3-0.371-0.403v0zM72.078 57.453h-0.249v-0.422h0.265c0.116-0.009 0.232 0.004 0.342 0.040 0.025 0.022 0.044 0.049 0.057 0.079s0.019 0.063 0.017 0.096c-0.002 0.033-0.010 0.065-0.026 0.094s-0.037 0.054-0.064 0.073c-0.111 0.034-0.227 0.047-0.342 0.040v0z"></path>
<path fill="#afb1b8" style="fill: var(--color4, #afb1b8)" d="M75.656 57.685h0.836v-0.285h-0.836v-0.368h0.902v-0.285h-1.242v1.678h1.274v-0.285h-0.934v-0.454z"></path>
</symbol>
<symbol id="logo1" viewBox="0 0 111 64">
<path fill="#afb1b8" style="fill: var(--color4, #afb1b8)" d="M39.869 8.092l7.352 6.96-13.648-0.008v33.77h35.672v-12.912l7.344 6.953v-34.763h-36.721zM68.923 35.086l-20.847-19.735h20.847v19.735zM62.45 43.875h-23.232v-22.712h1.642v21.174h21.59v1.538zM44.704 53.311l-0.858 1.767-0.858-1.767h-0.72l1.253 2.356v1.373h0.651v-1.373l1.25-2.356h-0.717zM45.783 57.041l0.302-0.868h1.445l0.305 0.868h0.676l-1.411-3.729h-0.581l-1.409 3.729h0.674zM46.807 54.103l0.54 1.547h-1.081l0.541-1.547zM50.224 55.56c-0.094 0.143-0.141 0.301-0.141 0.474 0 0.314 0.11 0.569 0.331 0.766 0.222 0.195 0.517 0.292 0.886 0.292s0.687-0.1 0.953-0.3l0.21 0.248h0.722l-0.548-0.648c0.215-0.294 0.323-0.67 0.323-1.13h-0.54c0 0.251-0.052 0.479-0.156 0.684l-0.72-0.85 0.254-0.184c0.179-0.13 0.308-0.26 0.387-0.389 0.079-0.131 0.118-0.275 0.118-0.43 0-0.236-0.087-0.433-0.261-0.592-0.172-0.16-0.395-0.241-0.666-0.241-0.301 0-0.54 0.085-0.717 0.256-0.178 0.169-0.266 0.4-0.266 0.691 0 0.12 0.028 0.243 0.085 0.371 0.058 0.128 0.16 0.283 0.305 0.466-0.277 0.198-0.462 0.37-0.556 0.515zM51.907 56.385c-0.183 0.14-0.379 0.21-0.589 0.21-0.186 0-0.335-0.054-0.446-0.161s-0.166-0.248-0.166-0.42c0-0.2 0.102-0.377 0.307-0.533l0.079-0.056 0.815 0.961zM51.239 54.733c-0.176-0.217-0.264-0.397-0.264-0.54 0-0.125 0.036-0.228 0.108-0.31s0.168-0.123 0.289-0.123c0.113 0 0.206 0.035 0.279 0.105 0.073 0.068 0.11 0.151 0.11 0.248 0 0.147-0.053 0.267-0.159 0.361l-0.079 0.064-0.284 0.195zM57.309 56.759c0.256-0.224 0.403-0.535 0.441-0.932h-0.646c-0.034 0.266-0.115 0.457-0.243 0.571s-0.319 0.172-0.574 0.172c-0.278 0-0.49-0.106-0.635-0.318-0.144-0.212-0.215-0.519-0.215-0.922v-0.331c0.003-0.398 0.080-0.699 0.23-0.904 0.152-0.207 0.369-0.31 0.651-0.31 0.242 0 0.426 0.060 0.551 0.179 0.126 0.118 0.205 0.311 0.236 0.579h0.646c-0.041-0.408-0.187-0.724-0.438-0.948s-0.582-0.336-0.994-0.336c-0.306 0-0.575 0.073-0.809 0.218-0.232 0.145-0.411 0.352-0.535 0.62s-0.187 0.578-0.187 0.93v0.348c0.005 0.343 0.069 0.645 0.192 0.904s0.297 0.46 0.523 0.602c0.227 0.14 0.489 0.21 0.786 0.21 0.425 0 0.766-0.111 1.022-0.333zM61.118 56.236c0.126-0.277 0.19-0.598 0.19-0.963v-0.208c-0.002-0.364-0.067-0.682-0.195-0.955-0.128-0.275-0.31-0.485-0.546-0.63-0.234-0.147-0.503-0.22-0.807-0.22s-0.574 0.074-0.809 0.223c-0.234 0.147-0.416 0.359-0.546 0.638-0.128 0.278-0.192 0.599-0.192 0.963v0.21c0.002 0.357 0.066 0.672 0.195 0.945 0.13 0.273 0.313 0.484 0.548 0.633 0.237 0.147 0.507 0.22 0.809 0.22 0.306 0 0.575-0.073 0.809-0.22 0.236-0.149 0.417-0.36 0.543-0.635zM60.424 54.128c0.157 0.22 0.236 0.537 0.236 0.95v0.195c0 0.42-0.078 0.739-0.233 0.958-0.154 0.219-0.374 0.328-0.661 0.328-0.283 0-0.505-0.112-0.666-0.336-0.159-0.224-0.238-0.54-0.238-0.95v-0.215c0.003-0.401 0.084-0.711 0.241-0.93 0.159-0.22 0.378-0.331 0.658-0.331 0.287 0 0.508 0.11 0.663 0.331z"></path>
</symbol>
<symbol id="logo6" viewBox="0 0 113 64">
<path fill="#afb1b8" style="fill: var(--color4, #afb1b8)" d="M56.987 29.235c-0.473-0.629-0.699-1.373-0.645-2.121v-3.075c0-0.943 0.214-1.659 0.641-2.149s1.162-0.734 2.203-0.732c0.978 0 1.673 0.209 2.084 0.626 0.448 0.532 0.666 1.183 0.616 1.84v0.723h-1.75v-0.732c0.006-0.24-0.011-0.479-0.051-0.716-0.025-0.162-0.113-0.312-0.25-0.425-0.18-0.122-0.406-0.181-0.634-0.166-0.24-0.015-0.478 0.047-0.667 0.175-0.152 0.126-0.254 0.29-0.29 0.469-0.050 0.251-0.073 0.506-0.069 0.76v3.732c-0.028 0.36 0.050 0.72 0.225 1.048 0.087 0.111 0.208 0.199 0.349 0.254s0.298 0.076 0.452 0.059c0.224 0.016 0.447-0.045 0.62-0.169 0.143-0.122 0.234-0.282 0.261-0.454 0.041-0.248 0.059-0.498 0.054-0.748v-0.757h1.75v0.691c0.049 0.684-0.163 1.364-0.605 1.933-0.402 0.457-1.087 0.685-2.095 0.685s-1.768-0.244-2.2-0.751z"></path>
<path fill="#afb1b8" style="fill: var(--color4, #afb1b8)" d="M64.274 29.267c-0.442-0.479-0.663-1.176-0.663-2.099v-3.235c0-0.913 0.221-1.605 0.663-2.074s1.181-0.703 2.218-0.701c1.029 0 1.765 0.234 2.207 0.701 0.442 0.469 0.667 1.161 0.667 2.074v3.235c0 0.913-0.225 1.614-0.674 2.096s-1.181 0.723-2.2 0.723c-1.018 0-1.772-0.244-2.218-0.72zM67.307 28.491c0.158-0.3 0.23-0.628 0.21-0.957v-3.961c0.020-0.323-0.051-0.645-0.207-0.939-0.089-0.113-0.213-0.203-0.357-0.258s-0.305-0.074-0.462-0.055c-0.157-0.019-0.317 0-0.463 0.056s-0.27 0.144-0.36 0.257c-0.159 0.293-0.232 0.615-0.21 0.939v3.98c-0.022 0.329 0.050 0.658 0.21 0.957 0.102 0.101 0.228 0.182 0.369 0.237s0.295 0.084 0.45 0.084c0.155 0 0.308-0.029 0.45-0.084s0.267-0.136 0.369-0.237v-0.019z"></path>
<path fill="#afb1b8" style="fill: var(--color4, #afb1b8)" d="M71.47 21.252h1.884l1.417 5.969 1.45-5.969h1.834l0.185 8.615h-1.355l-0.145-5.987-1.399 5.987h-1.087l-1.45-6.009-0.134 6.009h-1.37l0.17-8.615z"></path>
<path fill="#afb1b8" style="fill: var(--color4, #afb1b8)" d="M80.352 21.252h2.935c1.691 0 2.537 0.815 2.537 2.446 0 1.562-0.89 2.342-2.671 2.34h-1v3.829h-1.812l0.011-8.615zM82.86 24.934c0.179 0.020 0.361 0.005 0.533-0.042s0.33-0.126 0.464-0.23c0.208-0.291 0.299-0.633 0.261-0.973 0.010-0.263-0.020-0.526-0.087-0.782-0.026-0.086-0.071-0.166-0.133-0.236s-0.14-0.129-0.229-0.173c-0.251-0.104-0.529-0.151-0.808-0.138h-0.703v2.575h0.703z"></path>
<path fill="#afb1b8" style="fill: var(--color4, #afb1b8)" d="M88.437 21.252h1.946l1.997 8.615h-1.689l-0.395-1.986h-1.736l-0.406 1.986h-1.714l1.997-8.615zM90.1 26.883l-0.678-3.616-0.678 3.616h1.355z"></path>
<path fill="#afb1b8" style="fill: var(--color4, #afb1b8)" d="M93.992 21.252h1.268l2.428 4.914v-4.914h1.504v8.615h-1.207l-2.442-5.13v5.13h-1.555l0.004-8.615z"></path>
<path fill="#afb1b8" style="fill: var(--color4, #afb1b8)" d="M102.714 26.582l-2.018-5.318h1.7l1.232 3.416 1.156-3.416h1.663l-1.993 5.318v3.285h-1.739v-3.285z"></path>
<path fill="#afb1b8" style="fill: var(--color4, #afb1b8)" d="M59.784 33.634v0.451h-1.478v3.501h-0.62v-3.501h-1.486v-0.451h3.584z"></path>
<path fill="#afb1b8" style="fill: var(--color4, #afb1b8)" d="M64.419 37.585h-0.478c-0.049 0.003-0.096-0.011-0.134-0.038-0.036-0.023-0.064-0.054-0.080-0.091l-0.428-0.939h-2.051l-0.428 0.939c-0.012 0.039-0.034 0.075-0.065 0.106-0.038 0.026-0.086 0.039-0.134 0.038h-0.478l1.812-3.951h0.631l1.834 3.935zM61.418 36.118h1.711l-0.725-1.608c-0.053-0.122-0.098-0.246-0.134-0.372-0.025 0.075-0.047 0.147-0.069 0.21l-0.065 0.166-0.718 1.605z"></path>
<path fill="#afb1b8" style="fill: var(--color4, #afb1b8)" d="M67.543 37.197c0.114 0.005 0.227 0.005 0.341 0 0.098-0.009 0.195-0.024 0.29-0.047 0.089-0.019 0.176-0.043 0.261-0.072 0.080-0.028 0.159-0.063 0.243-0.097v-0.889h-0.725c-0.018 0.001-0.036-0.001-0.053-0.007s-0.032-0.014-0.045-0.024c-0.012-0.009-0.021-0.020-0.028-0.032s-0.009-0.026-0.009-0.040v-0.303h1.406v1.514c-0.115 0.071-0.236 0.134-0.362 0.188-0.129 0.055-0.264 0.1-0.402 0.135-0.148 0.038-0.3 0.065-0.453 0.081-0.176 0.017-0.352 0.025-0.529 0.025-0.313 0.002-0.623-0.048-0.913-0.147-0.271-0.094-0.518-0.235-0.725-0.413-0.202-0.18-0.361-0.393-0.467-0.626-0.114-0.262-0.171-0.54-0.167-0.82-0.004-0.282 0.051-0.562 0.163-0.826 0.104-0.234 0.263-0.447 0.467-0.626 0.207-0.178 0.453-0.317 0.725-0.41 0.31-0.101 0.64-0.151 0.971-0.147 0.169-0 0.337 0.011 0.504 0.034 0.147 0.021 0.292 0.054 0.431 0.1 0.127 0.041 0.248 0.094 0.362 0.156 0.111 0.062 0.217 0.131 0.315 0.206l-0.174 0.244c-0.014 0.022-0.034 0.041-0.059 0.054s-0.053 0.020-0.083 0.021c-0.040-0.001-0.079-0.012-0.112-0.031-0.054-0.025-0.112-0.056-0.178-0.094-0.077-0.042-0.158-0.077-0.243-0.106-0.108-0.037-0.219-0.067-0.333-0.088-0.152-0.024-0.306-0.036-0.46-0.034-0.239-0.002-0.476 0.035-0.699 0.109-0.202 0.070-0.383 0.177-0.533 0.313-0.15 0.142-0.265 0.309-0.337 0.491-0.162 0.428-0.162 0.889 0 1.317 0.079 0.186 0.203 0.355 0.362 0.498 0.149 0.136 0.329 0.242 0.529 0.313 0.23 0.068 0.475 0.095 0.717 0.078v0z"></path>
<path fill="#afb1b8" style="fill: var(--color4, #afb1b8)" d="M73.319 37.135h1.979v0.45h-2.584v-3.951h0.62l-0.014 3.501z"></path>
<path fill="#afb1b8" style="fill: var(--color4, #afb1b8)" d="M77.356 37.585h-0.62v-3.951h0.62v3.951z"></path>
<path fill="#afb1b8" style="fill: var(--color4, #afb1b8)" d="M79.66 33.653c0.037 0.018 0.069 0.043 0.094 0.072l2.649 2.978c-0.004-0.047-0.004-0.094 0-0.141 0-0.044 0-0.088 0-0.128v-2.816h0.54v3.967h-0.312c-0.046 0.003-0.093-0.004-0.134-0.022-0.038-0.020-0.071-0.045-0.098-0.075l-2.645-2.975c0 0.047 0 0.091 0 0.135s0 0.084 0 0.122v2.816h-0.518v-3.952h0.323c0.035 0 0.070 0.007 0.101 0.019v0z"></path>
<path fill="#afb1b8" style="fill: var(--color4, #afb1b8)" d="M87.505 33.634v0.435h-2.196v1.305h1.779v0.419h-1.779v1.348h2.196v0.435h-2.834v-3.942h2.834z"></path>
<path fill="#afb1b8" style="fill: var(--color4, #afb1b8)" d="M22.573 9.233l27.515 6.745v23.635l-27.515-6.742v-23.638zM20.808 7.218v26.801l31.041 7.611v-26.798l-31.041-7.615z"></path>
<path fill="#afb1b8" style="fill: var(--color4, #afb1b8)" d="M37.444 54.072l-31.044-7.618v-26.798l31.044 7.615v26.801z"></path>
<path fill="#afb1b8" style="fill: var(--color4, #afb1b8)" d="M21.322 8.929l27.156 6.66-11.549 9.973-27.16-6.663 11.552-9.97zM20.808 7.218l-14.408 12.438 31.044 7.614 14.404-12.438-31.041-7.614z"></path>
<path fill="#afb1b8" style="fill: var(--color4, #afb1b8)" d="M39.191 52.564l12.657-10.93-12.657-3.106v14.037z"></path>
</symbol>
<symbol id="logo5" viewBox="0 0 113 64">
<path fill="#afb1b8" style="fill: var(--color4, #afb1b8)" d="M28.541 47.718c0.26 0.295 0.398 0.663 0.391 1.042 0.013 0.247-0.034 0.494-0.139 0.721s-0.264 0.431-0.467 0.595c-0.505 0.349-1.13 0.52-1.762 0.481h-3.097v-6.604h3.034c0.599-0.036 1.193 0.119 1.681 0.439 0.196 0.15 0.351 0.34 0.453 0.554s0.148 0.448 0.135 0.681c0.018 0.364-0.107 0.722-0.352 1.010-0.235 0.262-0.561 0.444-0.923 0.516 0.411 0.069 0.782 0.269 1.046 0.565v0zM24.908 46.721h1.297c0.295 0.020 0.587-0.058 0.825-0.219 0.097-0.081 0.173-0.181 0.221-0.293s0.068-0.232 0.057-0.352c0.009-0.119-0.011-0.239-0.058-0.351s-0.122-0.212-0.217-0.294c-0.244-0.166-0.546-0.245-0.849-0.223h-1.276v1.733zM27.156 49.253c0.104-0.083 0.186-0.186 0.239-0.303s0.076-0.242 0.067-0.368c0.008-0.127-0.016-0.255-0.071-0.372s-0.137-0.222-0.243-0.305c-0.254-0.172-0.566-0.257-0.881-0.239h-1.36v1.816h1.378c0.31 0.016 0.617-0.064 0.87-0.229v0z"></path>
<path fill="#afb1b8" style="fill: var(--color4, #afb1b8)" d="M34.742 50.557l-1.688-2.581h-0.634v2.581h-1.452v-6.604h2.748c0.693-0.044 1.378 0.157 1.913 0.561 0.384 0.358 0.616 0.831 0.653 1.332s-0.122 0.998-0.449 1.401c-0.339 0.356-0.802 0.593-1.311 0.671l1.797 2.639h-1.579zM32.42 47.075h1.187c0.825 0 1.237-0.333 1.237-1 0.008-0.136-0.014-0.272-0.066-0.4s-0.133-0.244-0.237-0.342c-0.261-0.198-0.596-0.295-0.934-0.268h-1.202l0.014 2.010z"></path>
<path fill="#afb1b8" style="fill: var(--color4, #afb1b8)" d="M42.678 49.227h-2.893l-0.511 1.329h-1.522l2.657-6.53h1.646l2.646 6.53h-1.522l-0.5-1.329zM42.29 48.227l-1.057-2.788-1.057 2.788h2.114z"></path>
<path fill="#afb1b8" style="fill: var(--color4, #afb1b8)" d="M52.611 50.557h-1.441l-3.231-4.491v4.491h-1.438v-6.604h1.438l3.231 4.517v-4.517h1.441v6.604z"></path>
<path fill="#afb1b8" style="fill: var(--color4, #afb1b8)" d="M60.835 48.976c-0.298 0.499-0.752 0.904-1.304 1.165-0.627 0.29-1.324 0.433-2.026 0.416h-2.565v-6.604h2.565c0.701-0.017 1.397 0.123 2.026 0.407 0.552 0.255 1.006 0.656 1.304 1.152 0.297 0.537 0.451 1.131 0.451 1.733s-0.155 1.195-0.451 1.733v0zM59.186 48.818c0.411-0.439 0.637-0.998 0.637-1.576s-0.226-1.137-0.637-1.576c-0.497-0.397-1.145-0.599-1.804-0.561h-1.001v4.275h1.001c0.659 0.038 1.307-0.164 1.804-0.561z"></path>
<path fill="#afb1b8" style="fill: var(--color4, #afb1b8)" d="M43.58 7.218c0 0 18.601 6.43 18.207 15.735v15.738c0 0-18.587-6.433-18.2-15.738l-0.007-15.735z"></path>
<path fill="#afb1b8" style="fill: var(--color4, #afb1b8)" d="M78.358 35.006c3.513-2.214 7.577-3.585 11.818-3.988v-4.927c-4.887 1.725-9.034 4.852-11.818 8.914v0z"></path>
<path fill="#afb1b8" style="fill: var(--color4, #afb1b8)" d="M76.247 36.49c2.875-5.301 7.86-9.392 13.929-11.431v-14.196c0 0-26.491 9.159-25.93 22.41v22.407c0 0 1.18-0.41 3.037-1.178 0-0.716 0-1.439 0.085-2.165 0.548-6.151 3.742-11.852 8.879-15.848v0z"></path>
<path fill="#afb1b8" style="fill: var(--color4, #afb1b8)" d="M73.728 44.814c0.139-1.554 0.45-3.091 0.927-4.588-3.199 3.451-5.136 7.733-5.539 12.244-0.039 0.426-0.060 0.852-0.070 1.291 1.505-0.661 3.256-1.487 5.095-2.458-0.469-2.134-0.608-4.318-0.412-6.488v0z"></path>
<path fill="#afb1b8" style="fill: var(--color4, #afb1b8)" d="M74.781 44.895c-0.176 1.963-0.066 3.939 0.328 5.875 7.238-3.965 15.37-10.092 15.056-17.496v-0.645c-5.171 0.53-10.009 2.599-13.77 5.891-0.881 2.040-1.425 4.188-1.614 6.375v0z"></path>
</symbol>
<symbol id="logo4" viewBox="0 0 113 64">
<path fill="#afb1b8" style="fill: var(--color4, #afb1b8)" d="M25.756 22.51h-0.003c-2.558 0-4.631 1.843-4.631 4.116v0.003c0 2.273 2.074 4.116 4.631 4.116h0.003c2.558 0 4.631-1.843 4.631-4.116v-0.003c0-2.273-2.074-4.116-4.631-4.116z"></path>
<path fill="#afb1b8" style="fill: var(--color4, #afb1b8)" d="M59.941 21.194c-0.007-3.157-1.422-6.184-3.933-8.416s-5.917-3.491-9.47-3.498v0c-3.554 0.006-6.96 1.263-9.473 3.496s-3.928 5.26-3.936 8.418v0 17.411c0 0 26.809-2.654 26.812-17.408v-0.003z"></path>
<path fill="#afb1b8" style="fill: var(--color4, #afb1b8)" d="M11.733 44.319c0.006 2.197 0.991 4.302 2.739 5.856s4.116 2.429 6.588 2.436v0c2.471-0.007 4.84-0.882 6.587-2.435s2.733-3.658 2.74-5.854v0-12.115c0 0-18.654 1.848-18.654 12.112zM21.061 46.49c-0.483 0-0.955-0.127-1.357-0.366s-0.715-0.578-0.899-0.974c-0.185-0.397-0.233-0.833-0.139-1.254s0.327-0.808 0.668-1.111c0.342-0.304 0.777-0.51 1.251-0.594s0.965-0.041 1.411 0.123c0.446 0.164 0.828 0.443 1.096 0.799s0.412 0.777 0.412 1.206c0.001 0.286-0.061 0.569-0.183 0.833s-0.302 0.505-0.529 0.707c-0.227 0.202-0.497 0.363-0.794 0.473s-0.615 0.166-0.937 0.166v-0.008z"></path>
<path fill="#afb1b8" style="fill: var(--color4, #afb1b8)" d="M39.912 45.295h-1.8v1.859h-0.938v-4.55h2.962v0.759h-2.025v1.175h1.8v0.756zM44.418 44.982c0 0.448-0.079 0.841-0.238 1.178s-0.385 0.598-0.681 0.781c-0.294 0.183-0.631 0.275-1.013 0.275-0.377 0-0.714-0.091-1.009-0.272s-0.525-0.44-0.687-0.775c-0.162-0.337-0.245-0.725-0.247-1.163v-0.225c0-0.448 0.080-0.842 0.241-1.181 0.163-0.342 0.391-0.603 0.684-0.784 0.296-0.183 0.633-0.275 1.013-0.275s0.716 0.092 1.009 0.275c0.296 0.181 0.524 0.443 0.684 0.784 0.162 0.34 0.244 0.732 0.244 1.178v0.203zM43.468 44.776c0-0.477-0.085-0.84-0.256-1.087s-0.415-0.372-0.731-0.372c-0.315 0-0.557 0.123-0.728 0.369-0.171 0.244-0.257 0.602-0.259 1.075v0.222c0 0.465 0.085 0.825 0.256 1.081s0.417 0.384 0.737 0.384c0.315 0 0.556-0.123 0.725-0.369 0.169-0.248 0.254-0.608 0.256-1.081v-0.222zM47.459 45.96c0-0.177-0.063-0.313-0.188-0.406-0.125-0.096-0.35-0.196-0.675-0.3-0.325-0.106-0.582-0.21-0.772-0.313-0.517-0.279-0.775-0.655-0.775-1.128 0-0.246 0.069-0.465 0.206-0.656 0.14-0.194 0.339-0.345 0.597-0.453 0.26-0.108 0.552-0.162 0.875-0.162 0.325 0 0.615 0.059 0.869 0.178 0.254 0.117 0.451 0.282 0.591 0.497 0.142 0.215 0.212 0.458 0.212 0.731h-0.938c0-0.208-0.066-0.37-0.197-0.484-0.131-0.117-0.316-0.175-0.553-0.175-0.229 0-0.407 0.049-0.534 0.147-0.127 0.096-0.191 0.223-0.191 0.381 0 0.148 0.074 0.272 0.222 0.372 0.15 0.1 0.37 0.194 0.659 0.281 0.533 0.16 0.922 0.359 1.166 0.597s0.366 0.533 0.366 0.887c0 0.394-0.149 0.703-0.447 0.928-0.298 0.223-0.699 0.334-1.203 0.334-0.35 0-0.669-0.064-0.956-0.191-0.287-0.129-0.507-0.305-0.659-0.528-0.15-0.223-0.225-0.481-0.225-0.775h0.941c0 0.502 0.3 0.753 0.9 0.753 0.223 0 0.397-0.045 0.522-0.134 0.125-0.092 0.188-0.219 0.188-0.381zM52.462 43.363h-1.394v3.791h-0.938v-3.791h-1.375v-0.759h3.706v0.759zM55.737 45.182h-1.8v1.219h2.113v0.753h-3.050v-4.55h3.044v0.759h-2.106v1.084h1.8v0.734zM58.284 45.488h-0.747v1.666h-0.938v-4.55h1.691c0.538 0 0.952 0.12 1.244 0.359s0.437 0.578 0.437 1.016c0 0.31-0.068 0.57-0.203 0.778-0.133 0.206-0.336 0.371-0.609 0.494l0.984 1.859v0.044h-1.006l-0.853-1.666zM57.537 44.729h0.756c0.235 0 0.418-0.059 0.547-0.178 0.129-0.121 0.194-0.286 0.194-0.497 0-0.215-0.061-0.383-0.184-0.506-0.121-0.123-0.307-0.184-0.559-0.184h-0.753v1.366zM63.218 45.551v1.603h-0.938v-4.55h1.775c0.342 0 0.642 0.063 0.9 0.188 0.26 0.125 0.46 0.303 0.6 0.534 0.139 0.229 0.209 0.491 0.209 0.784 0 0.446-0.153 0.798-0.459 1.056-0.304 0.256-0.726 0.384-1.266 0.384h-0.822zM63.218 44.792h0.837c0.248 0 0.436-0.058 0.566-0.175 0.131-0.117 0.197-0.283 0.197-0.5 0-0.223-0.066-0.403-0.197-0.541s-0.313-0.208-0.544-0.212h-0.859v1.428zM69.15 45.182h-1.8v1.219h2.113v0.753h-3.050v-4.55h3.044v0.759h-2.106v1.084h1.8v0.734zM73.5 43.363h-1.394v3.791h-0.938v-3.791h-1.375v-0.759h3.706v0.759zM76.775 45.182h-1.8v1.219h2.112v0.753h-3.050v-4.55h3.044v0.759h-2.106v1.084h1.8v0.734zM79.322 45.488h-0.747v1.666h-0.938v-4.55h1.691c0.537 0 0.952 0.12 1.244 0.359s0.438 0.578 0.438 1.016c0 0.31-0.068 0.57-0.203 0.778-0.133 0.206-0.337 0.371-0.609 0.494l0.984 1.859v0.044h-1.006l-0.853-1.666zM78.575 44.729h0.756c0.235 0 0.418-0.059 0.547-0.178 0.129-0.121 0.194-0.286 0.194-0.497 0-0.215-0.061-0.383-0.184-0.506-0.121-0.123-0.307-0.184-0.559-0.184h-0.753v1.366zM84.084 45.96c0-0.177-0.063-0.313-0.188-0.406-0.125-0.096-0.35-0.196-0.675-0.3-0.325-0.106-0.582-0.21-0.772-0.313-0.517-0.279-0.775-0.655-0.775-1.128 0-0.246 0.069-0.465 0.206-0.656 0.139-0.194 0.338-0.345 0.597-0.453 0.26-0.108 0.552-0.162 0.875-0.162 0.325 0 0.615 0.059 0.869 0.178 0.254 0.117 0.451 0.282 0.591 0.497 0.142 0.215 0.213 0.458 0.213 0.731h-0.938c0-0.208-0.066-0.37-0.197-0.484-0.131-0.117-0.316-0.175-0.553-0.175-0.229 0-0.407 0.049-0.534 0.147-0.127 0.096-0.191 0.223-0.191 0.381 0 0.148 0.074 0.272 0.222 0.372 0.15 0.1 0.37 0.194 0.659 0.281 0.533 0.16 0.922 0.359 1.166 0.597s0.366 0.533 0.366 0.887c0 0.394-0.149 0.703-0.447 0.928-0.298 0.223-0.699 0.334-1.203 0.334-0.35 0-0.669-0.064-0.956-0.191-0.288-0.129-0.507-0.305-0.659-0.528-0.15-0.223-0.225-0.481-0.225-0.775h0.941c0 0.502 0.3 0.753 0.9 0.753 0.223 0 0.397-0.045 0.522-0.134 0.125-0.092 0.188-0.219 0.188-0.381z"></path>
</symbol>
<symbol id="logo3" viewBox="0 0 113 64">
<path fill="#afb1b8" style="fill: var(--color4, #afb1b8)" d="M38.833 52.375c0.017 0 0.034 0.004 0.049 0.010s0.029 0.015 0.041 0.026l0.233 0.222c-0.181 0.18-0.404 0.324-0.654 0.422-0.293 0.107-0.61 0.159-0.928 0.152-0.299 0.005-0.596-0.043-0.872-0.142-0.249-0.091-0.474-0.227-0.657-0.399-0.187-0.179-0.332-0.389-0.425-0.617-0.102-0.254-0.152-0.522-0.148-0.791-0.004-0.271 0.050-0.54 0.16-0.794 0.102-0.23 0.255-0.439 0.451-0.617 0.199-0.174 0.436-0.311 0.698-0.402 0.286-0.097 0.591-0.145 0.899-0.142 0.285-0.006 0.569 0.038 0.835 0.129 0.23 0.087 0.442 0.207 0.625 0.356l-0.195 0.238c-0.013 0.017-0.030 0.031-0.050 0.043-0.023 0.014-0.051 0.020-0.078 0.018-0.030-0.002-0.059-0.011-0.084-0.025l-0.105-0.063-0.145-0.081c-0.063-0.030-0.128-0.056-0.195-0.078-0.086-0.027-0.175-0.048-0.265-0.063-0.114-0.018-0.23-0.027-0.346-0.025-0.221-0.002-0.441 0.034-0.646 0.106-0.191 0.067-0.364 0.169-0.506 0.298-0.145 0.138-0.257 0.299-0.329 0.475-0.082 0.201-0.122 0.413-0.119 0.627-0.004 0.217 0.037 0.432 0.119 0.637 0.071 0.174 0.181 0.335 0.323 0.473 0.133 0.128 0.298 0.229 0.483 0.293 0.19 0.068 0.394 0.103 0.599 0.101 0.119 0.002 0.237-0.005 0.355-0.020 0.192-0.020 0.376-0.078 0.538-0.169 0.081-0.047 0.158-0.099 0.23-0.157 0.030-0.025 0.069-0.039 0.111-0.040v0z"></path>
<path fill="#afb1b8" style="fill: var(--color4, #afb1b8)" d="M45.551 51.257c0.004 0.268-0.050 0.535-0.157 0.786-0.095 0.228-0.244 0.436-0.438 0.61s-0.428 0.311-0.687 0.401c-0.569 0.189-1.199 0.189-1.768 0-0.257-0.091-0.49-0.228-0.683-0.402-0.194-0.177-0.344-0.387-0.442-0.617-0.209-0.509-0.209-1.065 0-1.574 0.099-0.23 0.249-0.44 0.442-0.619 0.195-0.168 0.428-0.3 0.683-0.387 0.569-0.192 1.2-0.192 1.768 0 0.258 0.091 0.492 0.228 0.686 0.402 0.191 0.176 0.341 0.383 0.439 0.609 0.108 0.253 0.161 0.521 0.157 0.791zM44.941 51.257c0.005-0.215-0.033-0.428-0.111-0.632-0.065-0.174-0.171-0.335-0.311-0.473-0.136-0.13-0.304-0.232-0.492-0.298-0.414-0.138-0.872-0.138-1.285 0-0.187 0.066-0.355 0.168-0.491 0.298-0.142 0.136-0.249 0.297-0.314 0.473-0.148 0.411-0.148 0.852 0 1.264 0.066 0.175 0.173 0.336 0.314 0.473 0.137 0.129 0.304 0.23 0.491 0.296 0.414 0.135 0.871 0.135 1.285 0 0.187-0.066 0.355-0.167 0.492-0.296 0.139-0.138 0.245-0.298 0.311-0.473 0.078-0.204 0.115-0.417 0.111-0.632v0z"></path>
<path fill="#afb1b8" style="fill: var(--color4, #afb1b8)" d="M50.135 51.92l0.061 0.142c0.023-0.051 0.044-0.096 0.067-0.142 0.022-0.047 0.047-0.094 0.076-0.139l1.486-2.347c0.029-0.040 0.055-0.066 0.084-0.073 0.039-0.010 0.081-0.015 0.122-0.013h0.439v3.818h-0.521v-2.807c0-0.035 0-0.076 0-0.119-0.003-0.044-0.003-0.088 0-0.131l-1.495 2.38c-0.019 0.036-0.049 0.066-0.087 0.087s-0.083 0.032-0.128 0.032h-0.084c-0.045 0.001-0.090-0.010-0.128-0.031s-0.069-0.051-0.087-0.087l-1.538-2.395c0 0.045 0 0.091 0 0.136s0 0.086 0 0.121v2.807h-0.503v-3.81h0.439c0.041-0.002 0.083 0.002 0.122 0.013 0.036 0.016 0.065 0.041 0.081 0.073l1.518 2.35c0.030 0.043 0.055 0.089 0.076 0.136v0z"></path>
<path fill="#afb1b8" style="fill: var(--color4, #afb1b8)" d="M55.727 51.73v1.43h-0.582v-3.813h1.297c0.245-0.004 0.489 0.024 0.724 0.083 0.188 0.046 0.363 0.127 0.512 0.238 0.129 0.103 0.229 0.231 0.291 0.374 0.069 0.156 0.102 0.321 0.099 0.488 0.003 0.167-0.034 0.333-0.108 0.488-0.070 0.146-0.177 0.277-0.314 0.382-0.149 0.115-0.325 0.201-0.515 0.253-0.226 0.063-0.463 0.093-0.701 0.088l-0.704-0.010zM55.727 51.321h0.704c0.153 0.002 0.305-0.018 0.451-0.058 0.12-0.035 0.231-0.091 0.326-0.164 0.087-0.070 0.155-0.156 0.198-0.253 0.048-0.102 0.071-0.211 0.070-0.321 0.007-0.106-0.013-0.212-0.058-0.311s-0.115-0.188-0.203-0.26c-0.222-0.151-0.501-0.224-0.782-0.205h-0.704v1.572z"></path>
<path fill="#afb1b8" style="fill: var(--color4, #afb1b8)" d="M63.545 53.165h-0.459c-0.046 0.002-0.091-0.011-0.128-0.035-0.033-0.024-0.059-0.054-0.076-0.088l-0.395-0.922h-1.986l-0.41 0.922c-0.015 0.034-0.040 0.063-0.073 0.086-0.037 0.026-0.083 0.039-0.131 0.038h-0.459l1.745-3.818h0.605l1.768 3.818zM60.666 51.748h1.64l-0.692-1.554c-0.053-0.117-0.097-0.237-0.131-0.359l-0.067 0.2c-0.020 0.061-0.044 0.116-0.064 0.162l-0.686 1.552z"></path>
<path fill="#afb1b8" style="fill: var(--color4, #afb1b8)" d="M66.057 49.365c0.035 0.017 0.065 0.040 0.087 0.068l2.545 2.878c0-0.045 0-0.091 0-0.134s0-0.086 0-0.126v-2.704h0.521v3.818h-0.291c-0.041 0.001-0.082-0.007-0.119-0.023-0.036-0.018-0.067-0.042-0.093-0.071l-2.542-2.876c0.003 0.044 0.003 0.088 0 0.131 0 0.043 0 0.081 0 0.116v2.721h-0.521v-3.818h0.308c0.036-0.001 0.072 0.005 0.105 0.018v0z"></path>
<path fill="#afb1b8" style="fill: var(--color4, #afb1b8)" d="M73.497 51.647v1.516h-0.582v-1.516l-1.608-2.299h0.521c0.045-0.002 0.089 0.009 0.125 0.033 0.032 0.025 0.058 0.054 0.079 0.086l1.006 1.483c0.041 0.063 0.076 0.121 0.105 0.177s0.052 0.109 0.073 0.162l0.076-0.164c0.028-0.060 0.061-0.118 0.099-0.174l0.992-1.493c0.021-0.030 0.046-0.057 0.076-0.081 0.035-0.026 0.079-0.040 0.125-0.038h0.526l-1.611 2.31z"></path>
<path fill="#afb1b8" style="fill: var(--color4, #afb1b8)" d="M49.847 42.94c0.253 0.028 0.509 0.051 0.768 0.071 3.924-1.525 7.244-4.022 9.544-7.177s3.479-6.83 3.389-10.564l-4.325-3.757c0.879 3.976 0.468 8.086-1.188 11.87s-4.491 7.094-8.188 9.558v0z"></path>
<path fill="#afb1b8" style="fill: var(--color4, #afb1b8)" d="M48.303 42.765l0.116 0.020c3.951-2.455 6.963-5.884 8.647-9.842s1.962-8.265 0.799-12.363l-6.16-5.352c2.491 4.399 3.494 9.322 2.892 14.197s-2.785 9.501-6.294 13.34v0z"></path>
<path fill="#afb1b8" style="fill: var(--color4, #afb1b8)" d="M69.192 29.682c-1.046 4.103-3.588 7.803-7.247 10.552-1.069 0.807-2.221 1.526-3.443 2.148 2.98-0.761 5.719-2.106 8.005-3.932s4.060-4.084 5.184-6.599l-2.498-2.168z"></path>
<path fill="#afb1b8" style="fill: var(--color4, #afb1b8)" d="M68.212 29.077l-3.557-3.090c-0.068 3.523-1.221 6.967-3.339 9.972s-5.123 5.463-8.704 7.117h0.017c0.798-0 1.595-0.042 2.388-0.124 3.347-1.187 6.303-3.075 8.605-5.496s3.879-5.3 4.589-8.379v0z"></path>
<path fill="#afb1b8" style="fill: var(--color4, #afb1b8)" d="M48.817 12.972l-4.243-3.692c-3.793 1.274-7.055 3.512-9.36 6.424s-3.544 6.359-3.555 9.892v0c0.014 3.904 1.527 7.693 4.298 10.766s6.643 5.256 11.002 6.202c3.892-4.119 6.17-9.21 6.504-14.531s-1.293-10.597-4.646-15.060v0z"></path>
<path fill="#afb1b8" style="fill: var(--color4, #afb1b8)" d="M78.016 28.509c-0.015-4.632-2.14-9.070-5.91-12.346s-8.878-5.121-14.209-5.135v0c-2.463-0.002-4.906 0.393-7.204 1.165l25.979 22.572c0.89-1.995 1.345-4.117 1.344-6.256v0z"></path>
</symbol>
<symbol id="smartphone" viewBox="0 0 40 64">
<path fill="#757575" style="fill: var(--color5, #757575)" d="M34 0h-28c-3.309 0-6 2.691-6 6v52c0 3.309 2.691 6 6 6h28c3.309 0 6-2.691 6-6v-52c0-3.309-2.691-6-6-6zM6 4h28c1.103 0 2 0.896 2 2v42h-32v-42c0-1.104 0.896-2 2-2zM34 60h-28c-1.104 0-2-0.896-2-2v-6h32v6c0 1.104-0.897 2-2 2z"></path>
<path fill="#757575" style="fill: var(--color5, #757575)" d="M9.414 54.956c0.781 0.73 0.781 1.912 0 2.641s-2.047 0.73-2.828 0c-0.781-0.729-0.781-1.912 0-2.641s2.047-0.729 2.828 0z"></path>
</symbol>
</defs>
</svg>
